<?xml version="1.0" encoding="UTF-8"?>
<svg id="Layer_2" data-name="Layer 2" xmlns="http://www.w3.org/2000/svg" viewBox="0 0 55.66 55.66">
  <defs>
    <style>
      .cls-1 {
        fill: #f4f2ef;
      }

      .cls-2 {
        fill: #191919;
      }
    </style>
  </defs>
  <g id="Layer_1-2" data-name="Layer 1">
    <g>
      <g>
        <circle class="cls-2" cx="27.83" cy="27.83" r="27.5"/>
        <path class="cls-1" d="M27.83,55.66C12.49,55.66,0,43.18,0,27.83S12.49,0,27.83,0s27.83,12.49,27.83,27.83-12.49,27.83-27.83,27.83ZM27.83.66C12.85.66.66,12.85.66,27.83s12.19,27.17,27.17,27.17,27.17-12.19,27.17-27.17S42.81.66,27.83.66Z"/>
      </g>
      <g>
        <circle class="cls-2" cx="27.83" cy="27.71" r="20.1"/>
        <path class="cls-1" d="M27.83,48.14c-11.27,0-20.43-9.17-20.43-20.43S16.56,7.27,27.83,7.27s20.44,9.17,20.44,20.44-9.17,20.43-20.44,20.43ZM27.83,7.94c-10.9,0-19.77,8.87-19.77,19.77s8.87,19.77,19.77,19.77,19.77-8.87,19.77-19.77S38.73,7.94,27.83,7.94Z"/>
      </g>
      <g>
        <path class="cls-1" d="M7.57,18.87c-.1.22-.22.38-.37.51-.15.12-.32.19-.51.21-.19.02-.38-.02-.59-.11l-1.7-.75.21-.48,1.7.75c.19.08.35.1.5.04.15-.05.26-.17.34-.36.08-.18.09-.35.04-.49-.06-.15-.18-.26-.36-.34l-1.7-.75.21-.48,1.7.75c.21.09.36.21.48.37.11.15.17.33.18.52s-.03.4-.13.62Z"/>
        <path class="cls-1" d="M8.24,17.27l-2.46-1.51.32-.53,2.5.07-1.85-1.13.28-.45,2.46,1.51-.33.54-2.44-.05,1.8,1.1-.28.45Z"/>
        <path class="cls-1" d="M9.83,14.81l-2.32-1.72.32-.42,2.32,1.72-.32.42Z"/>
        <path class="cls-1" d="M10.82,13.54l-1.84-1.58-.57.67-.35-.3,1.49-1.73.35.3-.57.66,1.84,1.58-.34.4Z"/>
        <path class="cls-1" d="M11.89,12.33l-1.98-2.1,1.41-1.33.32.33-1.03.97.52.55.99-.94.31.33-.99.94.52.55,1.05-.99.32.33-1.43,1.36Z"/>
        <path class="cls-1" d="M13.67,10.68l-1.72-2.31.77-.57c.37-.27.73-.39,1.08-.33.35.05.66.26.94.64.28.37.39.73.34,1.07s-.25.65-.61.92l-.79.59ZM13.82,10l.35-.26c.24-.18.37-.38.39-.6s-.07-.46-.26-.72c-.2-.27-.41-.42-.62-.46s-.44.03-.68.21l-.35.26,1.18,1.58Z"/>
        <path class="cls-1" d="M17.74,8.11c-.21.11-.41.17-.61.17-.19,0-.37-.04-.52-.12s-.29-.22-.4-.39l.46-.27c.07.1.15.18.24.23.09.05.19.08.29.07.1,0,.21-.04.33-.1.1-.05.18-.11.24-.17.06-.06.09-.13.1-.2.01-.07,0-.14-.04-.21-.03-.06-.08-.12-.14-.15s-.14-.05-.25-.05-.26.03-.46.08c-.24.06-.43.09-.59.1-.16,0-.29-.02-.4-.09s-.19-.16-.27-.3c-.08-.15-.11-.3-.09-.45s.08-.3.18-.43c.1-.13.25-.25.45-.35.2-.11.4-.16.58-.16.18,0,.34.04.49.13.15.09.27.21.38.36l-.46.27c-.06-.09-.13-.16-.21-.2-.08-.05-.17-.07-.27-.07-.1,0-.2.03-.31.08-.14.07-.23.16-.27.26-.05.1-.04.2,0,.3.04.07.08.12.14.15s.13.04.24.03c.1-.01.24-.04.41-.08.25-.07.47-.1.64-.1.17,0,.31.04.42.11s.2.17.26.29c.08.16.11.31.09.47-.02.16-.09.3-.2.44-.11.14-.27.25-.46.35Z"/>
        <path class="cls-1" d="M19.54,7.22l-.88-2.26-.82.32-.17-.43,2.12-.83.17.43-.81.32.88,2.26-.49.19Z"/>
        <path class="cls-1" d="M20.54,6.8l.23-3.06.62-.17,1.78,2.5-.53.15-.41-.59-1.1.31-.05.72-.53.15ZM21.14,5.45l.8-.22-.73-1.06-.08,1.29Z"/>
        <path class="cls-1" d="M23.71,6l-.42-2.39-.86.15-.08-.45,2.25-.39.08.45-.86.15.42,2.39-.52.09Z"/>
        <path class="cls-1" d="M25.31,5.74l-.21-2.88,1.94-.14.03.46-1.41.1.05.75,1.36-.1.03.45-1.36.1.05.76,1.44-.1.03.46-1.97.14Z"/>
        <path class="cls-1" d="M28.82,5.7c-.24,0-.44-.06-.61-.15-.17-.09-.3-.21-.39-.37s-.14-.33-.15-.53h.54c.01.11.04.22.09.31s.12.16.22.21c.09.05.2.08.34.08.11,0,.21,0,.29-.03.08-.03.14-.06.19-.12.04-.05.07-.12.07-.2,0-.07-.01-.14-.04-.2s-.1-.12-.2-.17c-.1-.05-.25-.1-.44-.16-.24-.06-.42-.13-.56-.21-.14-.07-.24-.17-.3-.27-.06-.11-.09-.24-.08-.4,0-.17.05-.31.14-.44s.21-.22.37-.29.34-.09.56-.08c.23,0,.42.06.58.15.16.09.28.21.36.35.09.15.14.31.15.5h-.53c0-.1-.04-.2-.08-.28s-.11-.15-.2-.19c-.08-.05-.19-.07-.31-.08-.15,0-.27.02-.36.09s-.14.15-.14.27c0,.08.01.14.05.2.03.05.1.1.19.14.09.04.22.08.39.13.25.06.46.14.6.23.15.09.25.19.31.31.06.11.09.24.08.39,0,.18-.06.33-.15.45s-.22.22-.39.28c-.17.06-.36.09-.58.08Z"/>
        <path class="cls-1" d="M32.48,6.17c-.28-.06-.51-.17-.68-.33-.18-.16-.29-.36-.35-.61-.06-.24-.06-.52,0-.82.07-.3.18-.56.33-.75.15-.2.34-.34.57-.41s.48-.08.76-.02c.28.06.51.17.69.33.17.16.29.37.35.61s.06.52,0,.82c-.07.3-.17.56-.33.75-.15.2-.34.33-.57.41s-.48.08-.76.02ZM32.58,5.72c.17.04.33.03.46-.03s.26-.15.35-.29c.1-.14.17-.31.21-.53.05-.21.05-.41.02-.57-.03-.17-.1-.31-.2-.41s-.24-.18-.41-.22-.32-.03-.46.03c-.14.06-.26.15-.36.29-.1.14-.17.32-.22.53-.05.21-.05.41-.02.57.03.17.1.3.21.41.1.11.24.18.41.21Z"/>
        <path class="cls-1" d="M34.18,6.52l.93-2.73,1.83.62-.15.43-1.6-.55.37-.19-.43,1.25-.2-.32,1.53.52-.15.43-1.53-.52.35-.13-.46,1.35-.5-.17Z"/>
        <path class="cls-1" d="M37.07,7.58l2.28-2.06.57.3-.44,3.04-.49-.26.11-.72-1.01-.54-.53.49-.49-.26ZM38.44,7.02l.74.39.21-1.27-.94.88Z"/>
        <path class="cls-1" d="M39.66,8.97l1.7-2.33.58.42-.67,2.28,1.96-1.34.58.42-1.7,2.33-.43-.31,1.17-1.61-1.76,1.18-.41-.3.58-2.04-1.17,1.61-.43-.31Z"/>
        <path class="cls-1" d="M42.46,11.09l1.99-2.09,1.41,1.34-.32.33-1.02-.97-.52.54.99.94-.31.33-.99-.94-.52.55,1.05,1-.32.33-1.43-1.36Z"/>
        <path class="cls-1" d="M44.2,12.77l2.21-1.85.77.93c.13.16.22.32.27.48.04.16.04.32,0,.46-.05.15-.14.28-.27.39-.1.08-.21.14-.33.16-.12.02-.23.02-.34-.02-.11-.03-.21-.09-.29-.17l.02-.04c.12.14.18.28.18.41,0,.13-.06.26-.19.38l-.59.59-.34-.41.54-.53c.08-.08.12-.16.12-.25,0-.08-.05-.19-.15-.3l-.44-.53-.84.7-.34-.41ZM45.73,12.18l.41.5c.1.12.21.19.33.21.12.02.23-.01.33-.1.11-.09.16-.19.16-.31,0-.12-.06-.24-.17-.38l-.4-.48-.67.56Z"/>
        <path class="cls-1" d="M45.91,14.92l2.37-1.65.3.43-2.37,1.65-.3-.43Z"/>
        <path class="cls-1" d="M47.07,16.84c-.13-.23-.19-.46-.19-.69,0-.23.08-.46.21-.67.14-.21.34-.39.61-.55.27-.15.53-.24.78-.26.25-.02.48.03.69.14.21.11.38.29.51.52.18.32.25.61.19.88-.06.27-.21.51-.47.73l-.3-.47c.15-.12.24-.27.27-.42.04-.15,0-.32-.1-.49-.08-.14-.19-.24-.32-.3s-.29-.08-.45-.06c-.17.02-.35.09-.53.19-.19.11-.33.23-.43.37-.1.13-.16.28-.17.42-.01.15.02.29.1.42.11.19.24.3.4.34.16.04.34.03.53-.05l.25.49c-.21.08-.42.11-.62.1s-.38-.07-.54-.18c-.16-.11-.31-.27-.43-.48Z"/>
        <path class="cls-1" d="M47.79,17.96l3.06-.16.25.6-2.26,2.08-.21-.51.54-.49-.44-1.05-.72.04-.21-.51ZM49.2,18.39l.32.77.96-.85-1.29.09Z"/>
      </g>
      <g>
        <path class="cls-1" d="M11.64,46.92l1.78-2.27.88.69c.27.21.42.44.47.68.05.25-.01.48-.19.71-.12.15-.25.26-.41.31s-.32.06-.49.02c-.17-.04-.35-.13-.52-.27l-.46-.36-.64.82-.42-.33ZM12.98,46.07l.45.35c.14.11.27.16.4.16.12,0,.23-.06.33-.19.09-.12.13-.24.1-.36-.03-.12-.11-.23-.25-.35l-.45-.35-.57.73Z"/>
        <path class="cls-1" d="M14,48.69l1.51-2.46,1.66,1.02-.24.39-1.21-.74-.39.64,1.16.71-.24.39-1.16-.71-.4.65,1.23.76-.24.39-1.68-1.03Z"/>
        <path class="cls-1" d="M16.43,50.12l1.2-2.62,1.1.5c.19.09.34.19.45.32s.17.27.2.42,0,.31-.08.47c-.06.12-.13.22-.23.29s-.2.11-.31.13c-.11.02-.23,0-.34-.03v-.05c.17.08.28.18.34.29.06.12.06.26,0,.42l-.28.79-.49-.22.26-.71c.04-.11.04-.2,0-.27-.04-.08-.12-.15-.26-.21l-.63-.29-.45.99-.48-.22ZM17.55,48.93l.59.27c.15.07.27.08.39.05.11-.03.2-.11.26-.24.06-.13.06-.25.01-.35s-.16-.2-.31-.27l-.56-.26-.36.79Z"/>
        <path class="cls-1" d="M19.35,51.42l.81-2.77.68.2.14,2.37,1.39-1.92.68.2-.81,2.77-.51-.15.56-1.91-1.26,1.7-.48-.14-.14-2.11-.56,1.91-.51-.15Z"/>
        <path class="cls-1" d="M23.14,52.4l.51-2.84.52.09-.51,2.84-.52-.09Z"/>
        <path class="cls-1" d="M25.05,52.69l.24-2.41-.87-.09.05-.46,2.27.23-.05.46-.87-.09-.24,2.41-.53-.05Z"/>
        <path class="cls-1" d="M28.79,52.84l-.23-2.88,1.11-.09c.34-.03.61.03.81.18.2.15.31.36.34.65.02.19-.02.36-.09.51-.08.15-.19.26-.34.35-.15.09-.34.14-.57.15l-.59.05.08,1.04-.53.04ZM29.2,51.31l.56-.04c.18-.01.31-.06.4-.15.09-.09.13-.21.12-.36-.01-.15-.07-.26-.17-.33-.1-.07-.24-.1-.42-.08l-.56.04.07.92Z"/>
        <path class="cls-1" d="M33,52.37c-.28.06-.53.05-.76-.03-.23-.08-.42-.21-.57-.41-.15-.2-.26-.45-.33-.75-.06-.31-.07-.58,0-.82.06-.24.18-.45.35-.61s.4-.27.68-.33c.28-.06.54-.05.76.03.23.08.41.22.57.41.15.2.26.45.33.76.06.31.06.58,0,.82-.06.24-.18.44-.35.6-.18.16-.41.27-.69.33ZM32.9,51.92c.17-.04.31-.11.41-.21.1-.11.17-.24.21-.41s.03-.36-.02-.57c-.04-.21-.12-.39-.21-.53-.1-.14-.21-.24-.35-.3-.14-.06-.29-.07-.46-.03-.17.04-.31.11-.41.21-.1.11-.17.25-.21.41s-.03.36.02.57c.04.21.12.39.21.53.1.14.21.24.35.29.14.06.29.07.46.03Z"/>
        <path class="cls-1" d="M35.09,51.8l-.95-2.72,1.14-.4c.2-.07.38-.1.54-.08.17.02.31.07.43.17.12.1.21.23.27.39.04.12.06.25.04.36-.02.12-.06.22-.13.31-.07.09-.16.16-.26.21l-.03-.03c.18-.06.33-.07.45-.02.12.05.22.15.29.31l.34.76-.51.18-.31-.69c-.05-.1-.11-.17-.19-.2-.08-.03-.19-.02-.33.03l-.65.23.36,1.03-.5.17ZM35.08,50.16l.61-.21c.15-.05.26-.13.31-.23.06-.1.07-.22.02-.35-.05-.13-.13-.22-.24-.26-.11-.04-.25-.03-.41.02l-.59.21.29.82Z"/>
        <path class="cls-1" d="M38.5,50.46l-1.06-2.18-.79.38-.2-.41,2.05-1,.2.41-.79.38,1.06,2.18-.48.23Z"/>
        <path class="cls-1" d="M39.83,49.82l-.64-3,.55-.34,2.4,1.9-.47.29-.56-.45-.97.6.16.71-.47.29ZM40.04,48.36l.71-.44-.99-.82.29,1.26Z"/>
        <path class="cls-1" d="M42.68,47.97l-1.79-2.26.41-.33,1.69,2.13-.41-.05,1.3-1.03.29.36-1.49,1.18Z"/>
      </g>
      <g>
        <polygon class="cls-1" points="2.57 28.7 3.7 28.35 3.71 27.16 4.4 28.13 5.53 27.77 4.82 28.72 5.51 29.69 4.39 29.31 3.68 30.26 3.69 29.08 2.57 28.7"/>
        <polygon class="cls-1" points="3.12 33.88 4.13 33.28 3.87 32.12 4.76 32.9 5.78 32.3 5.31 33.39 6.2 34.17 5.02 34.06 4.56 35.15 4.29 33.99 3.12 33.88"/>
        <polygon class="cls-1" points="2.88 23.58 4.06 23.5 4.35 22.35 4.79 23.45 5.97 23.37 5.06 24.13 5.5 25.23 4.5 24.6 3.59 25.35 3.88 24.21 2.88 23.58"/>
        <polygon class="cls-1" points="4.85 38.81 5.71 37.99 5.19 36.92 6.23 37.48 7.09 36.66 6.88 37.83 7.92 38.38 6.75 38.55 6.54 39.71 6.03 38.65 4.85 38.81"/>
        <polygon class="cls-1" points="7.64 43.21 8.3 42.22 7.56 41.29 8.7 41.61 9.36 40.62 9.41 41.81 10.55 42.13 9.44 42.54 9.49 43.72 8.75 42.79 7.64 43.21"/>
      </g>
      <g>
        <polygon class="cls-1" points="52.84 28.7 51.71 28.35 51.7 27.16 51.01 28.13 49.88 27.77 50.59 28.72 49.9 29.69 51.02 29.31 51.73 30.26 51.72 29.08 52.84 28.7"/>
        <polygon class="cls-1" points="52.3 33.88 51.28 33.28 51.54 32.12 50.65 32.9 49.63 32.3 50.1 33.39 49.21 34.17 50.39 34.06 50.85 35.15 51.12 33.99 52.3 33.88"/>
        <polygon class="cls-1" points="52.53 23.58 51.35 23.5 51.06 22.35 50.62 23.45 49.44 23.37 50.35 24.13 49.91 25.23 50.91 24.6 51.82 25.35 51.53 24.21 52.53 23.58"/>
        <polygon class="cls-1" points="50.56 38.81 49.7 37.99 50.22 36.92 49.18 37.48 48.32 36.66 48.53 37.83 47.49 38.38 48.66 38.55 48.87 39.71 49.38 38.65 50.56 38.81"/>
        <polygon class="cls-1" points="47.77 43.21 47.11 42.22 47.85 41.29 46.71 41.61 46.05 40.62 46 41.81 44.86 42.13 45.97 42.54 45.92 43.72 46.66 42.79 47.77 43.21"/>
      </g>
      <path class="cls-1" d="M25.63,26.84s.9-2.56,1-2.9-.14-.62-.5-.63-.6,0-.6,0c0,0,.02-.96.51-1.29s.67-.32,1.02-.32h1.85c.26,0,.35.14.49.81s1.05,4.67,1.05,4.67h-4.92l.1-.33Z"/>
      <g>
        <path class="cls-1" d="M26.08,36.5s-1.83,2.58-1.97,2.84.12.54.49.51c0,0,.05.49.58.41,0,0,0,.61.62.53,0,0,.07.44.66.41,0,0,.24.47.84.33,0,0,.31.31.69.31v-5.35h-1.91Z"/>
        <path class="cls-1" d="M29.91,36.5s1.83,2.58,1.97,2.84-.12.54-.49.51c0,0-.05.49-.58.41,0,0,0,.61-.62.53,0,0-.07.44-.66.41,0,0-.24.47-.84.33,0,0-.31.31-.69.31v-5.35h1.91Z"/>
      </g>
      <path class="cls-1" d="M25.09,27.35c-.67.18-1.82.37-2.41-.47-.64-.91-.27-1.83.17-2.57s.22-1.83-.64-2.71-6.16-4.7-7.16-5.25-.62.94-.32,1.23c0,0-.18.76.29,1.17,0,0-.32.53.91,1.29,0,0-.79.67,1,1.54,0,0-.73.12-.15.92,0,0-.41.48.15.97,0,0-.72.21.1.97,0,0-.76.48.15,1.1,0,0-.75.53.44,1.18,0,0-.73,1.24.41,1.71,0,0-.53.66.67.92,0,0-.53.69.5.84,0,0-.15.82.85.73,0,0-.09.56.88.45,0,0,.07.66.84.5,0,0,.21.6.95.35,0,0,.43.72,1,.25"/>
      <path class="cls-1" d="M30.53,27.35c.67.18,1.82.37,2.41-.47.64-.91.27-1.83-.17-2.57s-.22-1.83.64-2.71,6.16-4.7,7.16-5.25.62.94.32,1.23c0,0,.18.76-.29,1.17,0,0,.32.53-.91,1.29,0,0,.79.67-1,1.54,0,0,.73.12.15.92,0,0,.41.48-.15.97,0,0,.72.21-.1.97,0,0,.76.48-.15,1.1,0,0,.75.53-.44,1.18,0,0,.73,1.24-.41,1.71,0,0,.53.66-.67.92,0,0,.53.69-.5.84,0,0,.15.82-.85.73,0,0,.09.56-.88.45,0,0-.07.66-.84.5,0,0-.21.6-.95.35,0,0-.43.72-1,.25"/>
      <g id="MYVv4R">
        <g>
          <g>
            <path class="cls-1" d="M20.34,38.07s.03.06.03.1c.04.29.05,1.41.02,1.7-.02.18-.18.3-.36.32-1.39-.04-2.76.26-4.07-.34-.7-.31-1.57-.87-2.11-1.42-.37-.37-.82-.86-.57-1.41.41-.89,2.12-2.01,3.02-2.36,1.09-.42,2.6-.14,3.76-.22.13.03.26.16.27.3v1.8c-.68.03-1.4.16-2.06.34-.22.06-.55.13-.75.23-.69.36.46.58.75.66.65.16,1.38.29,2.05.3Z"/>
            <path class="cls-2" d="M18.05,40.31c-.72,0-1.44-.07-2.13-.38-.64-.29-1.55-.85-2.13-1.43-.33-.33-.88-.89-.59-1.51.42-.89,2.13-2.04,3.07-2.41.73-.28,1.63-.26,2.51-.23.45.01.88.03,1.28,0h.01s.01,0,.01,0c.17.04.32.21.34.38v1.9s-.09,0-.09,0c-.64.03-1.34.15-2.04.34l-.15.04c-.19.05-.43.11-.58.19-.14.07-.17.13-.17.14,0,.06.15.17.81.32l.1.02c.73.18,1.44.29,2.03.3h.03c.08.04.08.12.09.16.04.31.06,1.44.02,1.74-.03.21-.2.37-.44.4-.4-.01-.78,0-1.16.02-.28.01-.55.02-.83.02ZM18,34.52c-.59,0-1.17.04-1.66.23-.92.36-2.58,1.46-2.97,2.31-.22.47.15.9.55,1.3.57.57,1.45,1.11,2.08,1.4.93.42,1.88.38,2.88.35.38-.01.77-.03,1.16-.02.1-.01.25-.09.26-.24.03-.28.02-1.4-.02-1.67v-.02c-.6-.01-1.29-.12-2.01-.3l-.09-.02c-.46-.11-.92-.24-.95-.48-.02-.18.19-.29.27-.33.17-.09.41-.15.62-.2l.15-.04c.67-.18,1.36-.3,1.99-.34v-1.71c0-.08-.1-.18-.19-.21-.4.03-.83.02-1.28,0-.26,0-.52-.02-.78-.02Z"/>
          </g>
          <g>
            <path class="cls-1" d="M17.78,37.29c.8-.3,1.99-.46,2.83-.57l16.79-.07c.44-.36.91-.85,1.48-1.03.22-.07,1.57-.12,1.77-.05.28.1.31.23.34.49.05.44.08,1.89,0,2.3-.06.35-.22.4-.54.44-1.24.15-2.14-.12-3.02-1.04l-16.56.06c-.93-.06-2.2-.25-3.09-.53Z"/>
            <path class="cls-2" d="M39.83,38.94c-.99,0-1.73-.33-2.45-1.08l-16.52.06c-.86-.05-2.15-.24-3.11-.53l-.26-.08.25-.09c.8-.3,1.98-.46,2.84-.58l16.78-.07c.08-.07.17-.14.26-.22.37-.32.76-.66,1.23-.8.24-.07,1.61-.13,1.83-.05.32.12.36.29.4.57.05.42.08,1.89,0,2.32-.07.42-.29.48-.62.51-.22.03-.43.04-.62.04ZM37.46,37.67l.03.03c.83.87,1.68,1.17,2.94,1.02.31-.04.41-.07.46-.36.07-.38.04-1.82,0-2.27-.03-.25-.05-.34-.27-.42-.16-.06-1.49-.02-1.71.05-.43.13-.81.46-1.17.77-.1.08-.19.17-.29.24l-.03.02h-.03l-16.79.07c-.75.1-1.75.24-2.52.47.91.25,2.02.4,2.78.44l16.59-.06Z"/>
          </g>
        </g>
      </g>
      <g>
        <polygon class="cls-2" points="32.29 34.79 27.99 36.81 23.7 34.79 23.7 26.77 32.29 26.77 32.29 34.79"/>
        <path class="cls-1" d="M27.99,36.91l-4.39-2.07v-8.17h8.77v8.17l-4.39,2.07ZM23.79,34.73l4.2,1.98,4.2-1.98v-7.87h-8.4v7.87Z"/>
      </g>
      <rect class="cls-1" x="23.7" y="29.39" width="8.59" height=".37"/>
      <rect class="cls-1" x="28.28" y="29.58" width=".55" height="6.86"/>
      <rect class="cls-1" x="27.01" y="29.58" width=".55" height="6.77"/>
      <rect class="cls-1" x="25.74" y="29.58" width=".55" height="6.25"/>
      <rect class="cls-1" x="24.47" y="29.58" width=".55" height="5.65"/>
      <rect class="cls-1" x="30.83" y="29.58" width=".55" height="5.75"/>
      <rect class="cls-1" x="29.56" y="29.58" width=".55" height="6.41"/>
      <g>
        <path class="cls-2" d="M40.39,38.1c-.07-.22.01-1.79-.07-1.83-.04-.02-.89-.02-.99,0-.39.06-.97.45-1.21.77-.15.2-.13.24.03.43.39.47.93.69,1.52.71.11,0,.69,0,.72-.07Z"/>
        <path class="cls-2" d="M39.84,38.26c-.05,0-.11,0-.17,0-.65-.02-1.2-.27-1.59-.74-.17-.21-.22-.29-.03-.54.25-.33.85-.74,1.27-.8,0,0,.96-.04,1.05.01.08.04.09.11.08.97,0,.37,0,.82.03.91v.03s0,.03,0,.03c-.01.03-.05.13-.63.13ZM39.99,36.34c-.26,0-.6,0-.65.01-.38.05-.93.44-1.16.73q-.11.15.03.32c.35.43.85.66,1.46.67.19,0,.5,0,.62-.03-.02-.15-.02-.45-.02-.9,0-.3,0-.69-.02-.81-.05,0-.15,0-.26,0Z"/>
      </g>
      <g>
        <path class="cls-1" d="M27.78,10.69c-.15,0-.26.11-.26.25l.22,7.44h.13s.17-7.44.17-7.44c0-.14-.12-.25-.26-.25Z"/>
        <path class="cls-1" d="M23.31,11.45c-.14.04-.22.18-.17.31l2.6,7.02.12-.04-2.23-7.14c-.04-.13-.19-.2-.33-.16Z"/>
        <path class="cls-1" d="M19.15,13.54c-.12.08-.14.24-.05.34l4.92,5.87.1-.07-4.6-6.09c-.08-.11-.25-.14-.37-.06Z"/>
        <path class="cls-1" d="M32.27,11.43c.14.04.22.18.17.31l-2.58,7.03-.12-.04,2.2-7.14c.04-.13.19-.2.33-.16Z"/>
        <path class="cls-1" d="M36.45,13.5c.12.08.14.24.05.34l-4.89,5.89-.1-.07,4.58-6.11c.08-.11.25-.14.37-.06Z"/>
      </g>
    </g>
  </g>
</svg>