<?xml version="1.0" encoding="UTF-8"?>
<svg id="Layer_2" data-name="Layer 2" xmlns="http://www.w3.org/2000/svg" viewBox="0 0 301.34 301.34">
  <defs>
    <style>
      .cls-1 {
        fill: #f4f2ef;
      }

      .cls-2 {
        fill: #191919;
      }
    </style>
  </defs>
  <g id="Layer_1-2" data-name="Layer 1">
    <g>
      <g>
        <g>
          <circle class="cls-2" cx="150.67" cy="150.67" r="148.87"/>
          <path class="cls-1" d="M150.67,301.34C67.59,301.34,0,233.75,0,150.67S67.59,0,150.67,0s150.67,67.59,150.67,150.67-67.59,150.67-150.67,150.67ZM150.67,3.59C69.57,3.59,3.59,69.57,3.59,150.67s65.98,147.08,147.08,147.08,147.08-65.98,147.08-147.08S231.77,3.59,150.67,3.59Z"/>
        </g>
        <g>
          <circle class="cls-2" cx="150.25" cy="149.85" r="108.83"/>
          <path class="cls-1" d="M150.25,260.47c-61,0-110.62-49.63-110.62-110.62s49.63-110.62,110.62-110.62,110.62,49.63,110.62,110.62-49.63,110.62-110.62,110.62ZM150.25,42.82c-59.02,0-107.03,48.01-107.03,107.03s48.01,107.03,107.03,107.03,107.03-48.01,107.03-107.03-48.01-107.03-107.03-107.03Z"/>
        </g>
        <g>
          <path class="cls-1" d="M41.24,101.58c-.52,1.16-1.2,2.07-2.02,2.73s-1.75,1.04-2.76,1.13c-1.02.1-2.08-.1-3.19-.6l-9.17-4.12,1.17-2.61,9.17,4.12c1,.45,1.9.53,2.69.24s1.41-.93,1.85-1.92.52-1.88.21-2.67c-.3-.79-.96-1.41-1.96-1.86l-9.17-4.12,1.17-2.61,9.17,4.12c1.11.5,1.96,1.16,2.56,2,.6.83.93,1.78.98,2.83.06,1.05-.18,2.16-.7,3.33Z"/>
          <path class="cls-1" d="M44.9,93.02l-13.29-8.21,1.76-2.84,13.53.45-9.99-6.18,1.5-2.43,13.29,8.21-1.8,2.92-13.21-.35,9.71,6-1.5,2.43Z"/>
          <path class="cls-1" d="M53.5,79.79l-12.5-9.36,1.71-2.29,12.5,9.36-1.71,2.29Z"/>
          <path class="cls-1" d="M58.83,73.01l-9.92-8.6-3.11,3.59-1.88-1.63,8.08-9.33,1.88,1.63-3.1,3.57,9.92,8.6-1.87,2.16Z"/>
          <path class="cls-1" d="M64.64,66.49l-10.7-11.38,7.66-7.21,1.7,1.81-5.58,5.25,2.79,2.96,5.38-5.06,1.69,1.79-5.38,5.06,2.82,3,5.7-5.37,1.7,1.81-7.79,7.33Z"/>
          <path class="cls-1" d="M74.18,57.66l-9.31-12.54,4.17-3.09c2-1.49,3.95-2.08,5.83-1.8,1.89.29,3.58,1.44,5.07,3.46,1.49,2,2.1,3.94,1.85,5.81-.26,1.87-1.37,3.54-3.33,5l-4.27,3.17ZM75,53.96l1.87-1.39c1.31-.97,2.02-2.04,2.13-3.22.11-1.18-.36-2.48-1.42-3.91-1.08-1.45-2.19-2.29-3.35-2.52s-2.39.13-3.7,1.1l-1.87,1.39,6.35,8.55Z"/>
          <path class="cls-1" d="M96.23,43.8c-1.15.59-2.24.9-3.29.92-1.04.02-1.99-.2-2.84-.68s-1.56-1.18-2.13-2.11l2.5-1.48c.39.56.82.98,1.3,1.26s1,.41,1.56.4,1.16-.19,1.8-.52c.55-.28.98-.59,1.29-.92.31-.33.5-.69.57-1.06.06-.37,0-.75-.2-1.14-.18-.35-.43-.62-.74-.82s-.77-.28-1.37-.26c-.6.02-1.43.16-2.5.43-1.28.33-2.35.5-3.22.53-.86.02-1.58-.14-2.15-.48-.57-.34-1.05-.89-1.44-1.65-.42-.81-.58-1.63-.49-2.45.09-.83.41-1.6.98-2.33.57-.73,1.37-1.36,2.41-1.9,1.11-.57,2.15-.85,3.12-.85.97,0,1.86.24,2.66.7.8.46,1.48,1.12,2.05,1.97l-2.5,1.43c-.33-.48-.71-.84-1.14-1.09-.44-.25-.91-.38-1.44-.39-.52,0-1.08.14-1.66.45-.73.38-1.22.84-1.48,1.39s-.24,1.1.04,1.65c.19.38.44.65.75.8.3.16.73.21,1.28.15.55-.06,1.28-.2,2.2-.43,1.37-.38,2.53-.55,3.47-.52.94.03,1.7.23,2.29.6.59.37,1.06.91,1.41,1.6.44.85.6,1.69.48,2.53-.11.84-.47,1.63-1.09,2.36s-1.45,1.37-2.5,1.92Z"/>
          <path class="cls-1" d="M105.88,39.02l-4.75-12.25-4.43,1.72-.9-2.32,11.51-4.46.9,2.32-4.41,1.71,4.75,12.25-2.67,1.03Z"/>
          <path class="cls-1" d="M111.22,36.79l1.23-16.56,3.37-.94,9.62,13.54-2.88.8-2.24-3.21-5.96,1.66-.26,3.91-2.88.8ZM114.51,29.5l4.34-1.21-3.93-5.76-.41,6.97Z"/>
          <path class="cls-1" d="M128.36,32.46l-2.27-12.94-4.68.82-.43-2.45,12.16-2.13.43,2.45-4.66.82,2.27,12.94-2.82.49Z"/>
          <path class="cls-1" d="M137,31.07l-1.11-15.58,10.49-.75.18,2.48-7.64.54.29,4.06,7.37-.53.18,2.46-7.37.53.29,4.1,7.81-.56.18,2.48-10.67.76Z"/>
          <path class="cls-1" d="M155.97,30.88c-1.29-.05-2.39-.33-3.31-.82-.92-.49-1.63-1.16-2.13-1.99-.5-.84-.77-1.8-.82-2.88l2.91-.06c.06.68.23,1.26.51,1.74.28.48.67.85,1.17,1.12s1.1.41,1.82.44c.62.03,1.14-.03,1.58-.17.44-.14.78-.35,1.02-.64.24-.29.37-.66.39-1.1.02-.4-.06-.75-.24-1.08-.18-.32-.53-.62-1.06-.9-.53-.28-1.33-.56-2.39-.86-1.28-.35-2.3-.72-3.06-1.13-.76-.41-1.31-.9-1.63-1.48s-.48-1.29-.44-2.14c.04-.91.3-1.7.78-2.38.48-.68,1.15-1.19,2-1.55s1.86-.51,3.04-.46c1.25.05,2.29.32,3.14.8.85.48,1.5,1.12,1.97,1.92.47.8.74,1.7.81,2.72h-2.88c-.05-.56-.2-1.07-.46-1.5-.25-.44-.61-.78-1.06-1.05s-1.01-.4-1.67-.43c-.82-.03-1.48.13-1.97.48-.49.35-.75.84-.77,1.45-.02.42.07.78.25,1.07.19.29.53.54,1.04.76s1.21.46,2.13.71c1.38.35,2.47.77,3.27,1.26.8.49,1.37,1.04,1.69,1.65.33.62.47,1.31.44,2.09-.04.95-.31,1.77-.83,2.44s-1.22,1.18-2.11,1.52c-.89.34-1.94.48-3.12.43Z"/>
          <path class="cls-1" d="M175.69,33.38c-1.51-.32-2.74-.92-3.69-1.79s-1.6-1.96-1.92-3.28c-.33-1.31-.32-2.8.03-4.45.35-1.65.94-3.01,1.78-4.09.84-1.07,1.86-1.82,3.08-2.23,1.22-.42,2.59-.46,4.11-.14,1.53.33,2.78.93,3.72,1.8.95.88,1.58,1.97,1.91,3.3.33,1.32.31,2.81-.04,4.46s-.94,3.01-1.78,4.08c-.83,1.07-1.86,1.81-3.08,2.21-1.22.41-2.6.45-4.13.12ZM176.21,30.94c.93.2,1.77.15,2.52-.15.75-.3,1.38-.82,1.91-1.57.53-.75.91-1.71,1.16-2.87.25-1.16.28-2.2.11-3.1-.18-.91-.54-1.65-1.1-2.24-.56-.58-1.3-.97-2.21-1.17-.92-.19-1.75-.14-2.51.16-.75.3-1.4.84-1.92,1.59-.53.76-.92,1.72-1.16,2.88-.25,1.16-.28,2.19-.11,3.09.18.9.55,1.64,1.11,2.22s1.3.96,2.21,1.15Z"/>
          <path class="cls-1" d="M184.88,35.24l5.04-14.79,9.89,3.37-.8,2.35-8.66-2.95,2-1.02-2.31,6.79-1.06-1.73,8.29,2.82-.79,2.33-8.29-2.82,1.9-.73-2.48,7.29-2.71-.92Z"/>
          <path class="cls-1" d="M200.35,40.87l12.29-11.17,3.09,1.64-2.33,16.44-2.64-1.4.58-3.87-5.46-2.89-2.88,2.66-2.64-1.4ZM207.75,37.84l3.99,2.11,1.11-6.88-5.09,4.77Z"/>
          <path class="cls-1" d="M214.4,48.34l9.15-12.66,3.12,2.25-3.59,12.33,10.58-7.28,3.12,2.25-9.15,12.66-2.32-1.67,6.31-8.74-9.49,6.41-2.21-1.6,3.11-11.03-6.31,8.74-2.32-1.67Z"/>
          <path class="cls-1" d="M229.58,59.78l10.72-11.36,7.65,7.22-1.71,1.81-5.57-5.26-2.79,2.96,5.37,5.07-1.69,1.79-5.38-5.07-2.82,2.99,5.69,5.38-1.71,1.81-7.77-7.34Z"/>
          <path class="cls-1" d="M238.94,68.79l11.95-10.06,4.21,5c.73.86,1.21,1.73,1.45,2.61.24.87.23,1.71-.01,2.51-.25.8-.73,1.51-1.46,2.12-.55.46-1.14.76-1.76.88-.62.12-1.23.09-1.83-.09-.59-.18-1.12-.49-1.58-.92l.1-.23c.65.77.98,1.52.99,2.23,0,.71-.33,1.4-1,2.06l-3.19,3.21-1.87-2.22,2.92-2.89c.44-.43.66-.88.66-1.33,0-.46-.27-1-.8-1.63l-2.41-2.86-4.51,3.8-1.84-2.19ZM247.21,65.56l2.25,2.68c.56.66,1.15,1.05,1.77,1.15.63.11,1.23-.08,1.8-.56.58-.49.87-1.06.87-1.7,0-.64-.31-1.32-.91-2.04l-2.17-2.57-3.62,3.05Z"/>
          <path class="cls-1" d="M248.23,80.33l12.77-9,1.65,2.34-12.77,9-1.65-2.34Z"/>
          <path class="cls-1" d="M254.51,90.66c-.72-1.23-1.06-2.48-1.04-3.74.02-1.27.4-2.47,1.13-3.61.74-1.14,1.84-2.14,3.31-2.99,1.45-.84,2.85-1.31,4.21-1.4,1.36-.1,2.6.16,3.73.76,1.12.6,2.05,1.54,2.79,2.81,1,1.72,1.35,3.31,1.05,4.76s-1.14,2.76-2.5,3.95l-1.64-2.51c.79-.68,1.28-1.44,1.47-2.28.19-.84.01-1.73-.53-2.67-.44-.76-1.03-1.3-1.76-1.62-.73-.32-1.55-.42-2.46-.3s-1.87.48-2.87,1.06c-1.01.59-1.8,1.25-2.34,1.99-.55.73-.86,1.5-.93,2.28-.07.79.11,1.55.54,2.28.58,1,1.31,1.62,2.18,1.85.87.23,1.83.14,2.89-.27l1.37,2.66c-1.16.43-2.26.62-3.33.56s-2.04-.39-2.94-.98c-.9-.59-1.67-1.45-2.33-2.58Z"/>
          <path class="cls-1" d="M258.39,96.63l16.58-.96,1.38,3.22-12.15,11.32-1.18-2.75,2.89-2.65-2.43-5.68-3.91.26-1.18-2.75ZM266.05,98.93l1.77,4.15,5.19-4.66-6.96.51Z"/>
        </g>
        <g>
          <path class="cls-1" d="M62.22,253.32l9.71-12.23,4.74,3.76c1.44,1.14,2.28,2.37,2.54,3.7.26,1.33-.1,2.6-1.06,3.82-.65.82-1.39,1.37-2.23,1.67-.84.3-1.72.33-2.64.11-.92-.23-1.86-.72-2.82-1.48l-2.5-1.98-3.5,4.41-2.24-1.78ZM69.51,248.74l2.4,1.9c.76.6,1.47.9,2.15.89.67,0,1.27-.34,1.79-1,.51-.64.69-1.29.54-1.94-.15-.65-.6-1.28-1.36-1.88l-2.4-1.9-3.12,3.93Z"/>
          <path class="cls-1" d="M75.06,263.1l8.24-13.27,8.93,5.55-1.31,2.11-6.5-4.04-2.15,3.46,6.28,3.9-1.3,2.09-6.28-3.9-2.17,3.5,6.65,4.13-1.31,2.11-9.08-5.64Z"/>
          <path class="cls-1" d="M88.35,271.03l6.59-14.16,5.92,2.76c1.02.48,1.83,1.06,2.41,1.75.58.69.93,1.45,1.05,2.28s-.03,1.68-.43,2.54c-.3.65-.71,1.17-1.23,1.54-.51.38-1.08.61-1.69.69-.61.09-1.22.03-1.83-.17v-.25c.91.43,1.52.96,1.83,1.61.31.64.3,1.41-.03,2.29l-1.54,4.26-2.63-1.22,1.43-3.85c.22-.58.23-1.07.04-1.49-.2-.41-.67-.79-1.41-1.14l-3.39-1.58-2.49,5.35-2.59-1.21ZM94.48,264.61l3.17,1.48c.78.37,1.48.46,2.09.3.61-.17,1.08-.59,1.39-1.27.32-.69.35-1.33.07-1.91-.27-.58-.83-1.07-1.69-1.46l-3.05-1.42-2,4.29Z"/>
          <path class="cls-1" d="M104.3,278.17l4.44-14.98,3.69,1.09.7,12.83,7.57-10.38,3.69,1.09-4.44,14.98-2.74-.81,3.06-10.34-6.83,9.2-2.62-.78-.72-11.43-3.06,10.34-2.74-.81Z"/>
          <path class="cls-1" d="M125.01,283.63l2.78-15.37,2.81.51-2.78,15.37-2.81-.51Z"/>
          <path class="cls-1" d="M135.43,285.21l1.32-13.07-4.73-.48.25-2.47,12.28,1.24-.25,2.47-4.71-.48-1.32,13.07-2.85-.29Z"/>
          <path class="cls-1" d="M155.88,286.07l-1.22-15.57,6.03-.47c1.83-.14,3.29.18,4.38.98,1.09.8,1.7,1.97,1.82,3.52.08,1.04-.08,1.95-.49,2.74-.41.79-1.03,1.42-1.86,1.88-.83.46-1.85.74-3.07.84l-3.18.25.44,5.62-2.85.22ZM158.1,277.75l3.05-.24c.96-.08,1.69-.35,2.18-.81.49-.46.7-1.11.63-1.95-.06-.82-.37-1.42-.92-1.79-.55-.38-1.31-.53-2.28-.45l-3.05.24.39,5Z"/>
          <path class="cls-1" d="M178.79,283.49c-1.51.32-2.87.27-4.1-.14-1.23-.41-2.25-1.15-3.09-2.22-.83-1.07-1.42-2.43-1.77-4.08-.35-1.65-.36-3.14-.03-4.46.33-1.32.97-2.42,1.91-3.29.95-.87,2.18-1.47,3.7-1.79,1.54-.32,2.91-.28,4.13.14,1.22.42,2.25,1.16,3.08,2.24.83,1.08,1.42,2.44,1.77,4.09.35,1.65.36,3.13.03,4.45-.33,1.31-.97,2.4-1.92,3.27-.95.87-2.19,1.46-3.73,1.79ZM178.28,281.06c.93-.2,1.68-.58,2.24-1.16.56-.58.93-1.31,1.11-2.21.18-.9.14-1.93-.1-3.09s-.63-2.12-1.16-2.88c-.53-.76-1.16-1.29-1.91-1.6-.75-.31-1.58-.36-2.5-.17-.92.19-1.66.58-2.23,1.17-.57.58-.94,1.33-1.11,2.24-.18.91-.14,1.94.1,3.1.25,1.16.63,2.12,1.16,2.87.53.75,1.16,1.28,1.92,1.58s1.58.35,2.48.16Z"/>
          <path class="cls-1" d="M190.34,280.28l-5.21-14.73,6.16-2.18c1.06-.38,2.05-.52,2.95-.44.9.09,1.68.38,2.35.9.66.51,1.15,1.22,1.47,2.12.24.68.31,1.33.2,1.96s-.35,1.19-.72,1.68c-.38.49-.85.88-1.42,1.16l-.18-.17c.95-.34,1.77-.38,2.44-.14.67.25,1.2.8,1.58,1.66l1.88,4.12-2.74.97-1.68-3.75c-.25-.57-.58-.93-1.01-1.09s-1.03-.1-1.81.17l-3.53,1.25,1.97,5.56-2.7.95ZM190.24,271.4l3.3-1.17c.82-.29,1.38-.71,1.7-1.26s.35-1.18.1-1.88c-.25-.72-.68-1.19-1.28-1.41-.6-.22-1.34-.18-2.23.13l-3.17,1.12,1.58,4.46Z"/>
          <path class="cls-1" d="M208.91,272.93l-5.78-11.79-4.27,2.09-1.09-2.23,11.08-5.43,1.09,2.23-4.25,2.08,5.78,11.79-2.57,1.26Z"/>
          <path class="cls-1" d="M216.18,269.41l-3.52-16.23,2.96-1.86,13.06,10.25-2.54,1.59-3.06-2.44-5.24,3.28.86,3.82-2.54,1.59ZM217.26,261.48l3.82-2.39-5.41-4.4,1.58,6.8Z"/>
          <path class="cls-1" d="M231.69,259.24l-9.78-12.18,2.23-1.79,9.23,11.5-2.22-.27,7-5.62,1.56,1.94-8.01,6.43Z"/>
        </g>
        <g>
          <polygon class="cls-1" points="13.91 155.39 20.02 153.46 20.08 147.05 23.8 152.27 29.92 150.34 26.1 155.49 29.83 160.71 23.75 158.68 19.93 163.83 19.99 157.42 13.91 155.39"/>
          <polygon class="cls-1" points="16.86 183.43 22.37 180.15 20.95 173.9 25.77 178.12 31.28 174.84 28.75 180.73 33.58 184.95 27.19 184.37 24.67 190.27 23.25 184.01 16.86 183.43"/>
          <polygon class="cls-1" points="15.58 127.63 21.98 127.2 23.54 120.98 25.93 126.93 32.33 126.5 27.41 130.61 29.8 136.56 24.37 133.15 19.45 137.26 21.01 131.04 15.58 127.63"/>
          <polygon class="cls-1" points="26.27 210.09 30.89 205.65 28.09 199.88 33.74 202.9 38.37 198.46 37.24 204.77 42.89 207.79 36.54 208.67 35.42 214.98 32.62 209.22 26.27 210.09"/>
          <polygon class="cls-1" points="41.38 233.91 44.93 228.56 40.94 223.54 47.12 225.26 50.66 219.92 50.94 226.33 57.11 228.05 51.1 230.28 51.38 236.69 47.39 231.67 41.38 233.91"/>
        </g>
        <g>
          <polygon class="cls-1" points="286.74 155.39 280.62 153.46 280.56 147.05 276.84 152.27 270.73 150.34 274.54 155.49 270.82 160.71 276.9 158.68 280.71 163.83 280.66 157.42 286.74 155.39"/>
          <polygon class="cls-1" points="283.78 183.43 278.28 180.15 279.7 173.9 274.87 178.12 269.37 174.84 271.89 180.73 267.07 184.95 273.45 184.37 275.98 190.27 277.4 184.01 283.78 183.43"/>
          <polygon class="cls-1" points="285.06 127.63 278.67 127.2 277.1 120.98 274.71 126.93 268.32 126.5 273.24 130.61 270.85 136.56 276.28 133.15 281.2 137.26 279.64 131.04 285.06 127.63"/>
          <polygon class="cls-1" points="274.38 210.09 269.76 205.65 272.56 199.88 266.9 202.9 262.28 198.46 263.41 204.77 257.75 207.79 264.1 208.67 265.23 214.98 268.03 209.22 274.38 210.09"/>
          <polygon class="cls-1" points="259.26 233.91 255.72 228.56 259.7 223.54 253.53 225.26 249.98 219.92 249.71 226.33 243.53 228.05 249.54 230.28 249.27 236.69 253.25 231.67 259.26 233.91"/>
        </g>
      </g>
      <g>
        <g>
          <path class="cls-1" d="M150.73,73.73c-.84,0-1.51.64-1.5,1.43l1.27,23.19h.74s.99-23.19.99-23.19c.01-.78-.66-1.42-1.5-1.42Z"/>
          <g>
            <path class="cls-1" d="M130.05,79.6c-.8.24-1.24,1.04-.97,1.78l9.9,19.32.7-.21-7.75-19.96c-.24-.75-1.09-1.17-1.89-.93Z"/>
            <path class="cls-1" d="M101.7,74.39c-.67.46-.81,1.35-.3,1.97l27.63,29.9.59-.41-25.82-31.15c-.49-.64-1.44-.78-2.11-.32Z"/>
          </g>
        </g>
        <polygon class="cls-1" points="150.8 52.32 152.9 58.98 159.88 59.05 154.19 63.1 156.29 69.76 150.68 65.61 144.99 69.66 147.21 63.04 141.6 58.88 148.58 58.95 150.8 52.32"/>
        <polygon class="cls-1" points="116.16 68.46 122.06 65.95 121.5 59.57 125.71 64.4 131.61 61.9 128.31 67.39 132.52 72.23 126.27 70.79 122.97 76.29 122.41 69.9 116.16 68.46"/>
        <g>
          <path class="cls-1" d="M171.29,79.6c.8.24,1.24,1.04.97,1.78l-9.9,19.32-.7-.21,7.75-19.96c.24-.75,1.09-1.17,1.89-.93Z"/>
          <path class="cls-1" d="M199.64,74.39c.67.46.81,1.35.3,1.97l-27.63,29.9-.59-.41,25.82-31.15c.49-.64,1.44-.78,2.11-.32Z"/>
        </g>
        <polygon class="cls-1" points="185.17 68.46 179.27 65.95 179.83 59.57 175.63 64.4 169.72 61.9 173.03 67.39 168.82 72.23 175.07 70.79 178.37 76.29 178.93 69.9 185.17 68.46"/>
      </g>
      <path class="cls-1" d="M142.19,195.61s-10.88,14.89-11.67,16.29.29,4.26,2.81,3.84c0,0-.28,3.87,3.58,3.82,0,0,.42,3.06,4.56,3.2,0,0,1.27,3.06,5.45,2.45,0,0,1.65,1.68,3.74,1.68v-28.97l-8.48-2.3Z"/>
      <path class="cls-1" d="M135.48,150.28c-3.77.98-10.14,2.05-13.43-2.62-3.58-5.08-1.53-10.24.93-14.34s1.2-10.24-3.55-15.15c-4.75-4.91-34.4-26.21-39.97-29.32-5.57-3.11-3.44,5.24-1.8,6.88,0,0-.98,4.26,1.64,6.55,0,0-1.8,2.95,5.08,7.21,0,0-4.42,3.77,5.57,8.6,0,0-4.1.66-.82,5.16,0,0-2.29,2.7.82,5.41,0,0-4.01,1.15.57,5.41,0,0-4.26,2.7.82,6.14,0,0-4.18,2.98,2.46,6.57,0,0-4.1,6.95,2.29,9.57,0,0-2.84,4.2,3.77,5.16,0,0-2.95,3.85,2.78,4.67,0,0-.82,4.59,4.75,4.1,0,0-.49,3.11,4.91,2.54,0,0,.41,3.69,4.67,2.78,0,0,1.15,3.36,5.32,1.97,0,0,2.38,4.01,5.57,1.39"/>
      <path class="cls-2" d="M85.23,105.95c-.1,0-.21-.02-.31-.07l-8.35-4.17c-.35-.17-.49-.59-.31-.94.17-.35.59-.49.94-.31l8.35,4.17c.35.17.49.59.31.94-.12.25-.37.39-.63.39Z"/>
      <path class="cls-2" d="M91.19,114.23c-.1,0-.21-.02-.31-.07l-8.35-4.17c-.35-.17-.49-.59-.31-.94.17-.35.59-.49.94-.31l8.35,4.17c.35.17.49.59.31.94-.12.25-.37.39-.63.39Z"/>
      <path class="cls-2" d="M95.02,121.71c-.09,0-.19-.02-.28-.06l-7.63-3.37c-.35-.16-.51-.57-.36-.92.16-.35.57-.51.92-.36l7.63,3.37c.35.16.51.57.36.92-.12.26-.37.42-.64.42Z"/>
      <path class="cls-2" d="M82.83,99.31c-.13,0-.26-.04-.38-.11l-6.82-4.37c-.33-.21-.42-.64-.21-.97.21-.33.64-.42.97-.21l6.82,4.37c.33.21.42.64.21.97-.13.21-.36.32-.59.32Z"/>
      <path class="cls-2" d="M93.55,125.6c-.08,0-.16-.01-.25-.04l-5.16-1.93c-.36-.14-.55-.54-.41-.9.14-.36.54-.54.9-.41l5.16,1.93c.36.14.55.54.41.9-.1.28-.37.46-.66.46Z"/>
      <path class="cls-2" d="M92.57,130.12c-.07,0-.15-.01-.22-.04l-3.76-1.27c-.37-.12-.56-.52-.44-.89.12-.37.52-.56.89-.44l3.76,1.27c.37.12.56.52.44.89-.1.29-.37.48-.66.48Z"/>
      <path class="cls-2" d="M93.13,135.66c-.06,0-.12,0-.19-.03l-3.46-.96c-.37-.1-.59-.49-.49-.86.1-.37.49-.59.86-.49l3.46.96c.37.1.59.49.49.86-.09.31-.37.51-.67.51Z"/>
      <path class="cls-2" d="M102.6,152.35c-.1,0-.2-.02-.29-.06-3.04-1.41-3.36-4.14-3.06-5.79-2.43-1.53-2.33-4.29-1.82-5.97-1.09-.83-1.74-1.8-1.94-2.89-.21-1.14.14-2.11.4-2.64-1.21-1.85-1.65-3.53-1.31-5,.23-.98.77-1.65,1.18-2.03-1.23-2.49-.47-4.24.05-5.03-1.26-2.17-.58-3.97.2-4.91-1.33-2.87-.38-4.49.23-5.17-.53-2.01.42-3.42,1.45-4.23-2.85-1.87-7.83-5.45-8.07-5.62-.31-.23-.39-.66-.16-.98.23-.31.66-.39.98-.16.06.05,6.51,4.68,8.95,6.18l-.1,1.24c-.25.11-2.45,1.11-1.58,3.54l-.27.82c-.05.04-1.54,1.16.04,4.17l-.17.86c-.17.15-1.66,1.57-.07,3.89l-.08.9c-.06.06-1.5,1.6.11,4.32l-.26.97s-.82.49-1.06,1.57c-.25,1.14.21,2.6,1.35,4.23v.81s-.63.92-.42,2.03c.16.84.76,1.61,1.78,2.29l.26.85c-.06.15-1.44,3.56,1.45,4.98l.36.84c-.04.13-.97,3.2,2.17,4.65.35.16.5.58.34.93-.12.26-.37.41-.64.41Z"/>
      <g>
        <path class="cls-1" d="M165.86,150.28c3.77.98,10.14,2.05,13.43-2.62,3.58-5.08,1.53-10.24-.93-14.34s-1.2-10.24,3.55-15.15,34.4-26.21,39.97-29.32c5.57-3.11,3.44,5.24,1.8,6.88,0,0,.98,4.26-1.64,6.55,0,0,1.8,2.95-5.08,7.21,0,0,4.42,3.77-5.57,8.6,0,0,4.1.66.82,5.16,0,0,2.29,2.7-.82,5.41,0,0,4.01,1.15-.57,5.41,0,0,4.26,2.7-.82,6.14,0,0,4.18,2.98-2.46,6.57,0,0,4.1,6.95-2.29,9.57,0,0,2.84,4.2-3.77,5.16,0,0,2.95,3.85-2.78,4.67,0,0,.82,4.59-4.75,4.1,0,0,.49,3.11-4.91,2.54,0,0-.41,3.69-4.67,2.78,0,0-1.15,3.36-5.32,1.97,0,0-2.38,4.01-5.57,1.39"/>
        <path class="cls-2" d="M216.1,105.95c-.26,0-.5-.14-.63-.39-.17-.35-.03-.77.31-.94l8.35-4.17c.35-.17.77-.03.94.31.17.35.03.77-.31.94l-8.35,4.17c-.1.05-.21.07-.31.07Z"/>
        <path class="cls-2" d="M210.15,114.23c-.26,0-.5-.14-.63-.39-.17-.35-.03-.77.31-.94l8.35-4.17c.34-.17.77-.03.94.31.17.35.03.77-.31.94l-8.35,4.17c-.1.05-.21.07-.31.07Z"/>
        <path class="cls-2" d="M206.32,121.71c-.27,0-.53-.16-.64-.42-.16-.35,0-.77.36-.92l7.63-3.37c.35-.16.77,0,.92.36.16.35,0,.77-.36.92l-7.63,3.37c-.09.04-.19.06-.28.06Z"/>
        <path class="cls-2" d="M218.5,99.31c-.23,0-.46-.11-.59-.32-.21-.33-.11-.76.21-.97l6.82-4.37c.32-.21.76-.11.97.21.21.33.11.76-.21.97l-6.82,4.37c-.12.08-.25.11-.38.11Z"/>
        <path class="cls-2" d="M207.79,125.6c-.28,0-.55-.17-.66-.46-.14-.36.05-.77.41-.9l5.16-1.93c.36-.14.77.05.9.41.14.36-.05.77-.41.9l-5.16,1.93c-.08.03-.16.04-.25.04Z"/>
        <path class="cls-2" d="M208.76,130.12c-.29,0-.56-.18-.66-.48-.12-.37.07-.76.44-.89l3.77-1.27c.37-.13.76.07.89.44.12.37-.07.76-.44.89l-3.77,1.27c-.07.03-.15.04-.22.04Z"/>
        <path class="cls-2" d="M208.21,135.66c-.31,0-.59-.2-.67-.51-.1-.37.12-.76.49-.86l3.46-.96c.37-.1.76.12.86.49s-.12.76-.49.86l-3.46.96c-.06.02-.12.03-.19.03Z"/>
        <path class="cls-2" d="M198.74,152.35c-.26,0-.52-.15-.64-.41-.16-.35,0-.77.34-.93,3.14-1.45,2.21-4.53,2.17-4.66l.36-.84c2.89-1.42,1.51-4.84,1.45-4.98l.26-.85c1.02-.68,1.62-1.45,1.78-2.29.21-1.11-.41-2.02-.42-2.03v-.8c1.13-1.62,1.6-3.09,1.34-4.23-.24-1.08-1.04-1.56-1.07-1.58l-.26-.96c1.61-2.73.17-4.26.11-4.33l-.08-.89c1.6-2.32.11-3.74-.07-3.9l-.16-.85c1.59-3.02.1-4.13.03-4.18l-.26-.81c.87-2.43-1.33-3.43-1.59-3.54l-.1-1.24c2.43-1.5,8.88-6.14,8.95-6.18.31-.23.75-.16.98.16.23.31.15.75-.16.98-.24.17-5.22,3.75-8.07,5.62,1.02.81,1.97,2.22,1.45,4.23.62.67,1.57,2.3.23,5.17.78.94,1.46,2.74.2,4.91.52.78,1.28,2.54.05,5.03.42.39.96,1.05,1.18,2.03.34,1.47-.1,3.15-1.31,5,.26.53.61,1.51.4,2.64-.2,1.09-.85,2.06-1.94,2.89.52,1.68.61,4.44-1.82,5.97.31,1.65-.01,4.38-3.06,5.79-.1.04-.2.06-.29.06Z"/>
      </g>
      <circle class="cls-2" cx="141.67" cy="197.05" r="1.44"/>
      <g>
        <path class="cls-1" d="M143.2,130.09c-.59,1.89-5.38,17.07-5.38,17.07h26.84s-6.33-21.83-7.11-25.47c-.78-3.65-3.08-4.19-4.51-4.19h-6.99c-1.65,0-2.78,1.48-2.78,1.48,0,0-4.12-.19-6.11.34-5.11,1.36-1.93,7.99-1.93,7.99,0,0,.74-2.05,2.4-2.15s1.31,1.55,5.08,1.59c0,0,1.56-.05.49,3.35Z"/>
        <path class="cls-2" d="M142.97,127.62c-.16,0-.31-.05-.44-.16-.3-.24-.34-.69-.1-.98.55-.67,1.66-1.01,2.59-1.18-.23-.24-.48-.49-.74-.74-1.02-1.02-2.07-2.08-2.47-2.9-1.08-2.26.8-4.15.89-4.23.28-.27.72-.27.99.01.27.28.27.72,0,.99-.05.05-1.25,1.27-.6,2.62.29.61,1.3,1.62,2.2,2.52.67.67,1.3,1.31,1.71,1.84l.81,1.06-1.33.07c-.96.05-2.56.35-2.95.84-.14.17-.34.26-.54.26Z"/>
        <path class="cls-2" d="M135.23,128s-.09,0-.13-.01c-.38-.07-.63-.44-.55-.82.27-1.4.92-2.47,1.88-3.08.93-.6,2.11-.74,3.39-.42,1.97.49,6.17,1.5,6.17,1.5l-.33,1.36s-4.21-1-6.18-1.5c-.63-.16-1.54-.24-2.3.24-.63.4-1.05,1.13-1.25,2.16-.06.33-.36.57-.69.57Z"/>
        <path class="cls-2" d="M151.88,121.94c-.2,0-.4-.08-.55-.24,0,0-.31-.29-.86-.29h-3.81c-.83,0-1.39-.24-1.66-.71-.26-.45-.15-.96.03-1.26.21-.36.67-.48,1.03-.27.27.15.4.45.37.73.06,0,.14.01.24.01h3.81c1.21,0,1.89.69,1.96.77.28.3.27.78-.04,1.06-.14.13-.33.2-.51.2ZM146.32,120.19s0,0,0,0c0,0,0,0,0,0Z"/>
        <polygon class="cls-2" points="149.7 122.37 147.37 122.37 146.62 121.62 146.62 120.67 147.37 119.92 149.7 119.92 150.45 120.67 150.45 121.62 149.7 122.37"/>
        <circle class="cls-1" cx="148.38" cy="121.12" r=".8"/>
        <path class="cls-2" d="M142.14,121.67c-.07,0-.15-.01-.23-.03l-1.3-.41c-.4-.12-.61-.55-.49-.94.12-.39.55-.61.94-.49l1.3.41c.4.12.61.55.49.94-.1.32-.4.52-.72.52Z"/>
      </g>
      <path class="cls-2" d="M150.67,215.06c-2.5,0-4.05-1.22-4.61-1.76-3.01-.16-4.4-1.92-4.88-2.74-3.23-.28-4.19-2.62-4.24-3.87l-.11-1.22c-.04-.39.25-.73.63-.76.38-.03.73.25.76.63l.12,1.26c.02.28.22,2.49,3.3,2.58l.63.44c.04.09.98,2.24,4.12,2.29l.52.25c.05.06,1.31,1.5,3.77,1.5.39,0,.7.31.7.7s-.31.7-.7.7Z"/>
      <path class="cls-1" d="M158.83,195.61s10.88,14.89,11.67,16.29c.78,1.39-.29,4.26-2.81,3.84,0,0,.28,3.87-3.58,3.82,0,0-.42,3.06-4.56,3.2,0,0-1.27,3.06-5.45,2.45,0,0-1.65,1.68-3.74,1.68v-28.97s8.48-2.3,8.48-2.3Z"/>
      <path class="cls-2" d="M150.35,215.06c-.39,0-.7-.31-.7-.7s.31-.7.7-.7c2.45,0,3.72-1.44,3.77-1.5l.52-.25c3.14-.05,4.08-2.16,4.11-2.25l.62-.43c3.08-.09,3.29-2.34,3.3-2.6.02-.24.14-1.22.14-1.22l1.39.17s-.12.95-.13,1.15c-.05,1.23-1.01,3.59-4.24,3.88-.49.81-1.87,2.54-4.88,2.7-.56.53-2.11,1.76-4.61,1.76Z"/>
      <path class="cls-1" d="M138.78,188.02l-7.76-2.48-5.56,14.85h5.07l1.68-2.52c.59-.04,1.45-.27,1.41-1.33,0,0,1.84.17,1.52-1.44,0,0,2.07.02,2.09-1.86l-1.5-.65,3.05-4.58Z"/>
      <path class="cls-1" d="M162.56,188.02l7.76-2.48,5.56,14.85h-5.07s-1.68-2.52-1.68-2.52c-.59-.04-1.45-.27-1.41-1.33,0,0-1.84.17-1.52-1.44,0,0-2.07.02-2.09-1.86l1.5-.65-3.05-4.58Z"/>
      <circle class="cls-2" cx="160.05" cy="197.05" r="1.06"/>
      <path class="cls-2" d="M132.58,217.9s-.02,0-.03,0c-.38-.02-.68-.34-.67-.73,0-.09.11-2.14,2.04-4.16.27-.28.71-.29.99-.02.28.27.29.71.02.99-1.54,1.62-1.65,3.2-1.65,3.26-.02.37-.33.66-.7.66Z"/>
      <path class="cls-2" d="M135.63,222.83c-.07,0-.15-.01-.22-.04-.37-.12-.56-.52-.44-.88.04-.13,1.08-3.18,4.07-7.42.22-.32.66-.39.98-.17s.39.66.17.98c-2.86,4.06-3.88,7.03-3.89,7.06-.1.29-.37.48-.66.48Z"/>
      <path class="cls-2" d="M141.14,224.31s-.09,0-.14-.01c-.38-.08-.62-.45-.54-.83.03-.14.76-3.58,3.51-7.72.22-.32.65-.41.97-.2.32.21.41.65.2.97-2.59,3.9-3.3,7.2-3.31,7.23-.07.33-.36.56-.69.56Z"/>
      <path class="cls-2" d="M146.59,226.86s-.02,0-.04,0c-.39-.02-.68-.35-.66-.73,0-.12.16-2.96,1.23-5.72.14-.36.55-.54.91-.4.36.14.54.55.4.91-.99,2.54-1.14,5.26-1.14,5.28-.02.37-.33.67-.7.67Z"/>
      <path class="cls-2" d="M168.53,217.9c-.37,0-.68-.29-.7-.67,0-.08-.11-1.65-1.65-3.26-.27-.28-.26-.72.02-.99.28-.27.72-.26.99.02,1.93,2.02,2.03,4.08,2.04,4.16.02.39-.28.71-.67.73-.01,0-.02,0-.03,0Z"/>
      <path class="cls-2" d="M165.47,222.83c-.29,0-.56-.18-.66-.48,0-.03-1.03-3-3.89-7.06-.22-.32-.15-.75.17-.98.31-.22.75-.15.98.17,2.99,4.24,4.03,7.29,4.07,7.42.12.37-.07.76-.44.89-.07.03-.15.04-.22.04Z"/>
      <path class="cls-2" d="M159.96,224.31c-.33,0-.62-.23-.69-.56,0-.03-.71-3.33-3.31-7.23-.21-.32-.13-.76.2-.97.32-.21.76-.13.97.2,2.75,4.14,3.48,7.58,3.51,7.72.08.38-.17.75-.54.83-.05,0-.1.01-.14.01Z"/>
      <path class="cls-2" d="M154.52,226.86c-.37,0-.68-.29-.7-.67,0-.03-.15-2.74-1.14-5.28-.14-.36.04-.77.4-.91.36-.14.77.04.91.4,1.08,2.76,1.23,5.6,1.23,5.72.02.39-.28.71-.66.73-.01,0-.02,0-.04,0Z"/>
      <g>
        <path class="cls-1" d="M216.43,195.31c-.16-1.4-.27-1.86-1.52-2.31-.89-.32-8.24-.1-9.47.29-2.4.75-4.46,2.52-6.45,4.24-.54.46-1.07.92-1.59,1.34l-.14.11h-.18s-87.19.36-87.19.36c-4.19.57-9.72,1.33-13.95,2.62,5.03,1.36,11.2,2.21,15.41,2.46l86.11-.31.15.16c4.58,4.83,9.3,6.46,16.3,5.63,1.72-.2,2.3-.4,2.57-2.01.36-2.13.23-10.09-.05-12.59ZM209.31,206.35c-3.05-.08-5.86-1.22-7.86-3.65-.82-1-.95-1.2-.17-2.22,1.25-1.62,4.23-3.66,6.27-3.95.52-.07,4.91-.12,5.14,0,.42.22-.01,8.33.35,9.44-.15.39-3.18.38-3.73.37Z"/>
        <path class="cls-2" d="M212.32,192.84c1.27,0,2.29.05,2.59.15,1.25.45,1.36.91,1.52,2.31.28,2.5.42,10.46.05,12.59-.27,1.6-.85,1.8-2.57,2.01-1.16.14-2.25.21-3.29.21-5.27,0-9.19-1.8-13.01-5.84l-.15-.16-86.11.31c-4.21-.25-10.38-1.1-15.41-2.46,4.22-1.29,9.76-2.04,13.95-2.62l87.19-.36h.18s.14-.11.14-.11c.52-.42,1.05-.88,1.59-1.34,1.99-1.72,4.05-3.5,6.45-4.24.82-.26,4.35-.44,6.88-.44M209.76,206.36c1.02,0,3.16-.05,3.28-.37-.36-1.11.07-9.22-.35-9.44-.1-.06-1.08-.08-2.16-.08-1.28,0-2.7.03-2.98.07-2.04.29-5.02,2.33-6.27,3.95-.79,1.02-.65,1.22.17,2.22,2,2.43,4.81,3.57,7.86,3.65.09,0,.25,0,.45,0M212.32,190.9c-1.22,0-6.05.09-7.46.53-2.78.87-5,2.78-7.14,4.63-.39.34-.78.67-1.16.99l-86.68.36h-.13s-.13.02-.13.02h-.07c-4.15.58-9.83,1.36-14.17,2.68l-6.46,1.97,6.52,1.76c5.53,1.5,11.97,2.3,15.8,2.52h.06s.06,0,.06,0l85.28-.31c4.09,4.14,8.43,5.99,13.99,5.99,1.1,0,2.29-.07,3.52-.22,1.96-.23,3.75-.68,4.25-3.61.42-2.49.24-10.68-.04-13.13-.2-1.72-.52-3.1-2.79-3.92-.36-.13-.94-.27-3.25-.27h0ZM202.97,201.49c1.12-1.32,3.54-2.84,4.86-3.04.19-.02,1.37-.05,2.7-.05.14,0,.28,0,.4,0,.01.84,0,1.9,0,2.71,0,1.41,0,2.47.01,3.27-.34.01-.74.02-1.19.02-.18,0-.32,0-.4,0-1.85-.05-4.46-.59-6.39-2.92h0Z"/>
      </g>
      <g>
        <g>
          <path class="cls-1" d="M129.64,197.81c-.92-.16-1.46.62-1.75,1.79h-.98c-.11-1.06-.49-1.87-1.47-1.88-.89,0-1.3.77-1.42,1.88h-.8c-.26-1.12-.77-1.96-1.79-1.81-2.5.37-.27,6.36,1.13,8.6.21.35.75.23.8-.17.09-.66.16-1.59.15-2.93h.69c.24,1.42.65,2.21,1.03,3.1.16.37.7.34.82-.05.2-.67.53-1.69.72-3.05h.87c.03,1.38.2,2.15.43,3.05.1.4.64.45.82.08.35-.71,1.05-2.62,1.44-4.02.53-1.88,1-4.31-.67-4.6Z"/>
          <path class="cls-2" d="M125.43,197.72s0,0,.01,0c.97,0,1.35.83,1.46,1.88h.98c.26-1.07.74-1.81,1.52-1.81.07,0,.15,0,.23.02,1.68.29,1.21,2.71.67,4.6-.39,1.4-1.09,3.31-1.44,4.02-.08.17-.24.25-.39.25-.19,0-.37-.11-.42-.33-.22-.9-.4-1.67-.43-3.05h-.87c-.19,1.36-.52,2.39-.72,3.05-.06.21-.24.31-.42.31-.16,0-.32-.09-.4-.26-.38-.89-.78-1.68-1.03-3.1h-.69c.01,1.34-.05,2.27-.15,2.93-.03.24-.24.38-.44.38-.14,0-.28-.06-.36-.2-1.39-2.24-3.63-8.24-1.13-8.6.08-.01.15-.02.23-.02.87,0,1.32.8,1.56,1.83h.8c.12-1.11.53-1.88,1.41-1.88M125.43,196.22c-.36,0-1.21.08-1.9.79-.64-.61-1.37-.74-1.87-.74-.14,0-.29.01-.45.03-.93.14-1.67.69-2.07,1.55-1.29,2.77,1.4,8.15,2.14,9.33.35.57.97.91,1.64.91.51,0,.98-.19,1.33-.52.36.36.85.58,1.38.58.56,0,1.07-.23,1.42-.62.36.39.87.63,1.43.63.75,0,1.41-.42,1.74-1.09.41-.84,1.14-2.87,1.54-4.27.51-1.81.92-3.85.03-5.24-.42-.67-1.08-1.1-1.9-1.24-.16-.03-.32-.04-.48-.04-.51,0-1.26.14-1.92.82-.68-.76-1.56-.89-2.04-.89h0s-.02,0-.02,0h0Z"/>
        </g>
        <path class="cls-2" d="M126.82,203.87c-.05-.5-.54-1.08-.69-1.19-.37-.19-.5-.65-.31-1.01.19-.37.65-.51,1.02-.31.94.49.76,2.06.8,2.49.04.41-.78.41-.82.02Z"/>
        <path class="cls-2" d="M123.5,203.87c-.05-.5-.54-1.08-.69-1.19-.37-.19-.5-.65-.31-1.01.19-.37.65-.51,1.02-.31.94.49.76,2.06.8,2.49.04.41-.78.41-.82.02Z"/>
      </g>
      <g>
        <g>
          <path class="cls-1" d="M171.7,197.81c.92-.16,1.46.62,1.75,1.79h.98c.11-1.06.49-1.87,1.47-1.88.89,0,1.3.77,1.42,1.88h.8c.26-1.12.77-1.96,1.79-1.81,2.5.37.27,6.36-1.13,8.6-.21.35-.75.23-.8-.17-.09-.66-.16-1.59-.15-2.93h-.69c-.24,1.42-.65,2.21-1.03,3.1-.16.37-.7.34-.82-.05-.2-.67-.53-1.69-.72-3.05h-.87c-.03,1.38-.2,2.15-.43,3.05-.1.4-.64.45-.82.08-.35-.71-1.05-2.62-1.44-4.02-.53-1.88-1-4.31.67-4.6Z"/>
          <path class="cls-2" d="M175.91,197.72c.88,0,1.29.78,1.41,1.88h.8c.24-1.03.7-1.83,1.56-1.83.07,0,.15,0,.23.02,2.5.37.27,6.36-1.13,8.6-.09.14-.23.2-.36.2-.2,0-.41-.14-.44-.38-.09-.66-.16-1.59-.15-2.93h-.69c-.24,1.42-.65,2.21-1.03,3.1-.08.18-.24.26-.4.26-.18,0-.36-.11-.42-.31-.2-.67-.53-1.69-.72-3.05h-.87c-.03,1.38-.2,2.15-.43,3.05-.05.21-.24.33-.42.33-.16,0-.31-.08-.39-.25-.35-.71-1.05-2.62-1.44-4.02-.53-1.88-1-4.31.67-4.6.08-.01.16-.02.23-.02.78,0,1.26.74,1.52,1.81h.98c.11-1.06.49-1.87,1.47-1.88,0,0,0,0,.01,0M175.91,196.22h-.03c-.48,0-1.36.13-2.04.89-.65-.68-1.41-.82-1.92-.82-.16,0-.32.01-.48.04-.82.14-1.47.57-1.9,1.24-.88,1.4-.48,3.44.03,5.24.39,1.39,1.13,3.43,1.54,4.27.33.67.99,1.09,1.74,1.09.56,0,1.07-.24,1.43-.63.36.39.87.62,1.42.62s1.02-.21,1.38-.58c.35.32.81.52,1.33.52.67,0,1.28-.34,1.64-.91.73-1.18,3.42-6.56,2.14-9.33-.4-.86-1.13-1.41-2.07-1.55-.15-.02-.3-.03-.45-.03-.5,0-1.23.13-1.87.74-.7-.71-1.55-.79-1.9-.79h0Z"/>
        </g>
        <path class="cls-2" d="M174.49,203.87c.05-.5.54-1.08.69-1.19.37-.19.5-.65.31-1.01-.19-.37-.65-.51-1.02-.31-.94.49-.76,2.06-.8,2.49-.04.41.78.41.82.02Z"/>
        <path class="cls-2" d="M177.81,203.87c.05-.5.54-1.08.69-1.19.37-.19.5-.65.31-1.01-.19-.37-.65-.51-1.02-.31-.94.49-.76,2.06-.8,2.49-.04.41.78.41.82.02Z"/>
      </g>
      <path class="cls-1" d="M107.13,216.6c.5-.07,1.21-.45,1.3-1.27.17-1.5.11-7.34-.09-8.8v-.09c-2.94-.08-6.35-.62-9.9-1.58l-.46-.12c-2.27-.57-4.5-1.24-4.65-2.51-.11-.94.95-1.54,1.3-1.74.81-.45,1.99-.78,3.03-1.06.26-.07.5-.14.73-.2,3.31-.96,6.68-1.57,9.77-1.77v-9c-.05-.42-.48-.93-.93-1.08-1.96.15-4.06.08-6.29,0-1.27-.04-2.55-.09-3.82-.09-2.92,0-5.76.23-8.15,1.22-4.53,1.87-12.66,7.68-14.61,12.15-1.08,2.47.74,4.74,2.7,6.85,2.78,3,7.13,5.85,10.22,7.34,4.56,2.2,9.23,2.01,14.17,1.82,1.85-.08,3.77-.15,5.68-.09Z"/>
      <polygon class="cls-2" points="174.68 189.27 150.64 201.48 126.65 189.27 126.65 142.5 174.68 142.5 174.68 189.27"/>
      <g>
        <g>
          <g>
            <path class="cls-2" d="M171.05,188.01l-20.38,9.59-20.38-9.59c-1.75-.82-2.87-2.59-2.87-4.52v-40.23h46.5v40.23c0,1.94-1.12,3.7-2.87,4.52Z"/>
            <path class="cls-1" d="M150.67,198.43l-20.7-9.75c-2.01-.94-3.3-2.99-3.3-5.2v-40.98h48v40.98c0,2.22-1.3,4.26-3.3,5.2l-20.7,9.75ZM128.17,144.01v39.48c0,1.64.96,3.15,2.44,3.84l20.06,9.44,20.06-9.44c1.48-.7,2.44-2.21,2.44-3.84v-39.48h-45Z"/>
          </g>
          <rect class="cls-1" x="127.42" y="157.44" width="46.5" height="2"/>
        </g>
        <g>
          <rect class="cls-1" x="132.06" y="159.43" width="3" height="30.12"/>
          <rect class="cls-1" x="138.91" y="159.43" width="3" height="33.34"/>
          <rect class="cls-1" x="145.75" y="159.43" width="3" height="36.56"/>
          <rect class="cls-1" x="152.59" y="159.43" width="3" height="36.56"/>
          <rect class="cls-1" x="159.43" y="159.43" width="3" height="33.34"/>
          <rect class="cls-1" x="166.27" y="159.43" width="3" height="30.12"/>
        </g>
      </g>
      <rect class="cls-2" x="195.93" y="195.13" width="1.94" height="11.23"/>
    </g>
  </g>
</svg>