<?xml version="1.0" encoding="UTF-8"?>
<svg id="Layer_2" data-name="Layer 2" xmlns="http://www.w3.org/2000/svg" viewBox="0 0 55.67 55.67">
  <defs>
    <style>
      .cls-1 {
        fill: #f4f2ef;
      }

      .cls-2 {
        fill: #1a1816;
      }
    </style>
  </defs>
  <g id="Layer_1-2" data-name="Layer 1">
    <g>
      <g>
        <g>
          <circle class="cls-2" cx="27.84" cy="27.84" r="27.5"/>
          <path class="cls-1" d="M27.84,55.67C12.49,55.67,0,43.19,0,27.84S12.49,0,27.84,0s27.84,12.49,27.84,27.84-12.49,27.84-27.84,27.84ZM27.84.67C12.86.67.67,12.86.67,27.84s12.19,27.16,27.16,27.16,27.16-12.19,27.16-27.16S42.81.67,27.84.67Z"/>
        </g>
        <path class="cls-1" d="M27.84,48.6c-11.45,0-20.76-9.31-20.76-20.76S16.39,7.07,27.84,7.07s20.76,9.31,20.76,20.76-9.31,20.76-20.76,20.76ZM27.84,7.75c-11.08,0-20.09,9.01-20.09,20.09s9.01,20.09,20.09,20.09,20.09-9.01,20.09-20.09S38.91,7.75,27.84,7.75Z"/>
      </g>
      <g>
        <path class="cls-1" d="M6.38,22.02c-.07.26-.18.47-.33.64-.15.16-.33.27-.54.33-.21.05-.44.05-.69-.02l-2.05-.56.16-.58,2.05.56c.22.06.41.05.57-.04.16-.09.26-.24.32-.46.06-.22.04-.41-.04-.56-.09-.15-.25-.26-.47-.32l-2.05-.56.16-.58,2.05.56c.25.07.45.18.6.33s.25.34.3.56.04.46-.04.72Z"/>
        <path class="cls-1" d="M6.86,20.13l-3.02-1.33.28-.65,2.85-.3-2.27-1,.24-.55,3.02,1.33-.29.66-2.78.31,2.21.97-.24.55Z"/>
        <path class="cls-1" d="M8.27,17.12l-2.87-1.63.3-.53,2.87,1.63-.3.53Z"/>
        <path class="cls-1" d="M9.21,15.56l-2.3-1.56-.57.83-.43-.3,1.47-2.16.43.3-.56.83,2.3,1.56-.34.5Z"/>
        <path class="cls-1" d="M10.28,14.04l-2.5-2.16,1.46-1.68.4.34-1.06,1.22.65.56,1.02-1.18.39.34-1.02,1.18.66.57,1.08-1.25.4.34-1.48,1.71Z"/>
        <path class="cls-1" d="M12.08,12l-2.19-2.47.82-.73c.39-.35.79-.51,1.2-.49.4.03.78.24,1.13.63.35.39.52.79.5,1.19-.02.4-.22.77-.61,1.11l-.84.75ZM12.18,11.21l.37-.33c.26-.23.39-.47.39-.72,0-.25-.12-.52-.37-.8-.25-.29-.5-.44-.75-.47-.25-.03-.5.07-.76.3l-.37.33,1.49,1.68Z"/>
        <path class="cls-1" d="M16.48,8.72c-.23.14-.46.22-.68.24-.22.02-.42-.02-.61-.1s-.35-.23-.48-.42l.51-.35c.09.11.19.2.29.25.11.05.22.07.34.06.12-.01.24-.06.37-.13.11-.07.2-.14.26-.21.06-.07.1-.15.11-.23,0-.08-.01-.16-.06-.24-.04-.07-.1-.13-.17-.16s-.17-.05-.29-.04c-.13.01-.3.05-.52.13-.27.09-.49.14-.67.16s-.33,0-.46-.07c-.12-.06-.23-.17-.33-.33-.1-.17-.15-.34-.14-.51s.06-.34.17-.51c.11-.16.27-.31.48-.43.23-.14.44-.21.65-.22.21-.01.4.02.57.11s.33.22.46.39l-.51.34c-.08-.1-.16-.17-.26-.22-.1-.05-.2-.07-.31-.06-.11,0-.23.05-.34.12-.15.09-.25.19-.29.31-.05.12-.04.24.03.35.05.08.1.13.17.16.07.03.16.03.27.01.11-.02.27-.06.46-.12.28-.1.53-.15.72-.16s.36.03.49.1c.13.07.24.18.32.32.1.17.15.35.14.53-.01.18-.08.35-.2.51-.12.16-.29.31-.5.44Z"/>
        <path class="cls-1" d="M18.44,7.6l-1.14-2.53-.92.41-.21-.48,2.38-1.07.22.48-.91.41,1.14,2.53-.55.25Z"/>
        <path class="cls-1" d="M19.55,7.06l.13-3.51.7-.23,2.14,2.78-.6.19-.5-.66-1.25.4-.02.83-.6.19ZM20.19,5.5l.91-.29-.88-1.19-.03,1.48Z"/>
        <path class="cls-1" d="M23.11,6.03l-.55-2.72-.98.2-.1-.52,2.56-.52.1.52-.98.2.55,2.72-.59.12Z"/>
        <path class="cls-1" d="M24.92,5.7l-.27-3.29,2.22-.18.04.52-1.61.13.07.86,1.56-.13.04.52-1.56.13.07.87,1.65-.14.04.52-2.25.19Z"/>
        <path class="cls-1" d="M28.94,5.63c-.27-.01-.51-.07-.7-.18s-.34-.25-.45-.42c-.1-.18-.16-.38-.17-.61h.62c.01.13.05.26.11.36.06.1.14.18.25.24s.23.09.38.09c.13,0,.24,0,.33-.03s.17-.07.22-.13c.05-.06.08-.14.08-.23,0-.08-.01-.16-.05-.23s-.11-.13-.22-.19c-.11-.06-.28-.12-.5-.18-.27-.07-.49-.16-.65-.24s-.27-.19-.34-.31c-.07-.12-.1-.27-.09-.45,0-.19.06-.36.17-.5.1-.14.24-.25.42-.33.18-.07.39-.11.64-.09.26.01.48.07.66.17.18.1.32.24.41.41.1.17.15.36.17.58h-.61c0-.12-.04-.23-.09-.32-.05-.09-.13-.17-.22-.22s-.21-.09-.35-.09c-.17,0-.31.03-.42.1-.1.07-.16.18-.17.31,0,.09.01.17.05.23.04.06.11.11.22.16s.26.1.45.15c.29.08.52.17.69.27.17.1.29.22.36.35.07.13.1.28.09.44,0,.2-.07.37-.18.52-.11.14-.26.25-.45.32-.19.07-.41.1-.66.09Z"/>
        <path class="cls-1" d="M33.09,6.23c-.32-.08-.57-.21-.77-.4-.2-.19-.33-.42-.39-.7s-.05-.59.03-.94.22-.63.4-.85c.18-.22.4-.37.67-.45.26-.08.55-.08.87,0,.32.08.58.21.78.4s.32.43.38.71.05.6-.03.94-.22.63-.4.85c-.18.22-.4.37-.66.45-.26.08-.55.08-.87,0ZM33.21,5.72c.2.05.37.04.53-.02.16-.06.3-.17.41-.32.12-.16.2-.36.26-.6.06-.24.07-.46.04-.66-.03-.19-.1-.35-.22-.48-.11-.13-.27-.21-.46-.26s-.37-.04-.53.02c-.16.06-.3.17-.42.33-.12.16-.2.36-.26.6-.06.24-.07.46-.04.65.03.19.11.35.22.48.12.13.27.21.46.26Z"/>
        <path class="cls-1" d="M35,6.68l1.2-3.08,2.06.8-.19.49-1.8-.7.43-.2-.55,1.41-.21-.38,1.72.67-.19.49-1.72-.67.41-.14-.59,1.52-.56-.22Z"/>
        <path class="cls-1" d="M38.19,8.01l2.75-2.19.63.39-.72,3.44-.54-.33.18-.81-1.11-.69-.64.52-.54-.33ZM39.79,7.48l.81.5.33-1.44-1.14.94Z"/>
        <path class="cls-1" d="M41.05,9.78l2.15-2.51.62.53-.98,2.54,2.36-1.35.62.53-2.15,2.51-.46-.39,1.48-1.73-2.11,1.18-.44-.38.85-2.27-1.48,1.73-.46-.39Z"/>
        <path class="cls-1" d="M44.01,12.44l2.5-2.16,1.46,1.68-.4.34-1.06-1.22-.65.56,1.02,1.18-.39.34-1.02-1.18-.66.57,1.08,1.25-.4.34-1.48-1.71Z"/>
        <path class="cls-1" d="M45.78,14.54l2.76-1.82.76,1.15c.13.2.21.39.24.58.03.19,0,.37-.06.53-.07.16-.19.3-.36.41-.13.08-.26.13-.39.14-.13.01-.26-.01-.38-.06-.12-.05-.22-.13-.31-.23l.03-.04c.12.18.17.34.15.49-.02.15-.1.29-.26.41l-.75.6-.34-.51.68-.54c.1-.08.16-.17.17-.26s-.03-.22-.13-.36l-.44-.66-1.04.69-.33-.5ZM47.6,14.06l.41.62c.1.15.22.25.34.29.13.04.26.01.39-.07.13-.09.21-.2.22-.33.02-.13-.03-.28-.14-.45l-.39-.59-.83.55Z"/>
        <path class="cls-1" d="M47.44,17.19l2.92-1.54.28.54-2.92,1.54-.28-.54Z"/>
        <path class="cls-1" d="M48.47,19.54c-.11-.28-.15-.55-.11-.81.04-.26.16-.51.34-.72.19-.22.45-.39.78-.53.33-.13.64-.19.92-.17.29.02.54.11.76.27.22.16.38.38.5.67.16.39.18.73.08,1.03-.11.29-.32.54-.64.75l-.27-.57c.19-.12.31-.26.38-.43.06-.17.05-.36-.03-.57-.07-.17-.18-.3-.32-.39-.14-.09-.31-.13-.51-.14-.19,0-.41.04-.63.14-.23.09-.41.21-.55.35-.14.14-.22.29-.26.45-.04.16-.02.33.04.49.09.23.23.38.4.45.18.07.38.08.61.03l.21.6c-.25.06-.49.06-.71.02-.22-.04-.42-.14-.58-.29-.17-.15-.31-.35-.41-.61Z"/>
        <path class="cls-1" d="M49.09,20.88l3.49.35.18.72-2.91,1.96-.15-.61.69-.46-.32-1.27-.82-.08-.15-.61ZM50.61,21.62l.23.92,1.24-.8-1.47-.13Z"/>
      </g>
      <g>
        <path class="cls-1" d="M10.02,46.33l2.18-2.48.96.84c.29.26.46.53.5.81s-.05.55-.27.79c-.15.17-.31.28-.49.33-.18.05-.37.05-.56,0-.19-.06-.39-.17-.58-.34l-.51-.45-.79.89-.45-.4ZM11.61,45.44l.49.43c.15.14.3.21.44.21.14,0,.27-.06.39-.19.11-.13.16-.27.14-.4s-.11-.28-.27-.41l-.49-.43-.7.8Z"/>
        <path class="cls-1" d="M12.59,48.49l1.85-2.73,1.84,1.25-.29.44-1.34-.91-.48.71,1.29.88-.29.43-1.29-.88-.49.72,1.37.93-.29.44-1.87-1.27Z"/>
        <path class="cls-1" d="M15.27,50.24l1.48-2.95,1.24.62c.21.11.38.23.5.38s.19.31.21.49c.02.18-.02.35-.11.53-.07.14-.16.24-.27.32-.11.08-.23.12-.36.14-.13.01-.26,0-.38-.05v-.05c.19.1.32.21.38.35.06.14.05.3-.02.48l-.35.89-.55-.27.32-.81c.05-.12.06-.23.02-.31-.04-.09-.14-.17-.29-.25l-.71-.35-.56,1.11-.54-.27ZM16.6,48.92l.66.33c.16.08.31.11.44.08s.23-.12.3-.26c.07-.14.08-.28.03-.4-.05-.12-.17-.23-.35-.32l-.64-.32-.45.89Z"/>
        <path class="cls-1" d="M18.54,51.81l.98-3.15.78.24.11,2.71,1.63-2.17.78.24-.98,3.15-.58-.18.68-2.18-1.47,1.92-.55-.17-.12-2.42-.68,2.18-.58-.18Z"/>
        <path class="cls-1" d="M22.84,53l.6-3.25.59.11-.6,3.25-.59-.11Z"/>
        <path class="cls-1" d="M24.95,53.33l.28-2.76-1-.1.05-.52,2.6.26-.05.52-1-.1-.28,2.76-.6-.06Z"/>
        <path class="cls-1" d="M28.64,53.5l-.25-3.29,1.28-.1c.39-.03.7.04.93.21s.36.42.38.75c.02.22-.02.41-.1.58-.09.17-.22.3-.39.4-.18.1-.39.16-.65.18l-.67.05.09,1.19-.6.05ZM29.11,51.74l.65-.05c.2-.02.36-.07.46-.17s.15-.24.13-.41c-.01-.17-.08-.3-.19-.38-.12-.08-.28-.11-.48-.1l-.65.05.08,1.06Z"/>
        <path class="cls-1" d="M33.41,52.96c-.32.07-.61.06-.87-.02-.26-.08-.48-.24-.66-.46s-.31-.51-.38-.86c-.08-.35-.08-.66-.02-.94.07-.28.2-.51.4-.7.2-.19.46-.32.78-.39.32-.07.62-.06.87.02.26.09.48.24.66.47.18.23.31.51.38.86.08.35.08.66.02.94-.07.28-.2.51-.4.7-.2.19-.46.31-.78.39ZM33.3,52.44c.2-.04.35-.13.47-.25.12-.12.19-.28.23-.47.04-.19.03-.41-.03-.65-.05-.25-.14-.45-.25-.61s-.25-.27-.41-.33c-.16-.06-.33-.07-.53-.03-.19.04-.35.13-.47.25-.12.12-.2.28-.23.48-.04.19-.03.41.03.66.05.25.14.45.25.6.11.16.25.27.41.33s.33.07.53.03Z"/>
        <path class="cls-1" d="M35.78,52.27l-1.17-3.09,1.29-.49c.22-.08.43-.12.62-.11.19.01.36.07.5.18.14.11.25.25.32.44.05.14.07.28.05.41s-.07.25-.15.36c-.08.11-.18.19-.3.25l-.04-.04c.2-.08.37-.09.51-.04.14.05.26.16.34.34l.42.86-.57.22-.37-.78c-.06-.12-.13-.19-.22-.23-.09-.03-.22-.02-.38.04l-.74.28.44,1.17-.57.21ZM35.72,50.39l.69-.26c.17-.06.29-.16.35-.27.06-.12.07-.25.01-.4-.06-.15-.15-.25-.28-.29-.13-.04-.29-.03-.47.04l-.67.25.35.94Z"/>
        <path class="cls-1" d="M39.61,50.64l-1.31-2.45-.89.47-.25-.46,2.3-1.23.25.46-.88.47,1.31,2.45-.53.28Z"/>
        <path class="cls-1" d="M41.05,49.88l-.89-3.4.61-.42,2.85,2.05-.52.36-.67-.49-1.08.74.22.8-.52.36ZM41.21,48.2l.79-.54-1.18-.88.4,1.42Z"/>
        <path class="cls-1" d="M44.19,47.63l-2.2-2.46.45-.4,2.08,2.32-.47-.03,1.42-1.27.35.39-1.62,1.45Z"/>
      </g>
      <path class="cls-1" d="M27.82,43.72c-5.05-2.12-11.69-7.01-11.69-13.58v-13.16s5.84-2.73,11.69-2.73c5.84,0,11.69,2.73,11.69,2.73v13.16c0,6.57-6.64,11.46-11.69,13.58Z"/>
      <g>
        <g id="MYVv4R">
          <g>
            <path class="cls-2" d="M26.09,28.47s.07.03.1.04c.26.18,1.13.96,1.34,1.2.13.15.1.36,0,.51-1.03,1.05-1.78,2.33-3.17,2.93-.74.32-1.8.6-2.61.63-.55.02-1.26.03-1.5-.57-.4-.96-.05-3.09.33-4.04.45-1.15,1.75-2.12,2.51-3.09.12-.08.31-.08.43,0l1.4,1.29c-.46.56-.87,1.2-1.21,1.84-.11.21-.29.52-.35.75-.21.8.78.06,1.05-.12.6-.39,1.21-.87,1.7-1.38Z"/>
            <path class="cls-2" d="M23.61,30.02c.32-.79.78-1.52,1.26-2.22l6.77-7.47c.03-.57,0-1.25.25-1.79.1-.21.98-1.24,1.16-1.34.26-.14.38-.07.59.09.36.26,1.45,1.22,1.7,1.55.22.28.15.43-.05.7-.73,1.02-1.54,1.5-2.82,1.52l-6.63,7.3c-.67.65-1.44,1.19-2.25,1.67ZM34.77,19.11c-.22-.1-1.38-1.29-1.47-1.26-.05.02-.65.69-.71.77-.24.35-.34,1.08-.27,1.49.05.26.09.27.36.28.64.03,1.21-.23,1.64-.68.08-.08.5-.54.46-.61Z"/>
          </g>
        </g>
        <g id="sUwQS2">
          <g>
            <path class="cls-2" d="M24.56,19.87l-1.08,1.05v.07c.9.79,1.86,1.53,2.73,2.35,1.63,1.54,3.26,3.27,4.83,4.89,1.06,1.09,2.07,2.25,3.14,3.34.13.14.28.37.46.24.1-.07.7-.67.75-.76.02-.03.04-.06.04-.1l-.05-.11c-1.2-1.12-2.4-2.23-3.57-3.38-1.62-1.57-3.35-3.2-4.89-4.83-.83-.88-1.57-1.85-2.37-2.76Z"/>
            <path class="cls-2" d="M18.77,24.61s.09-.07.12-.11c.26-.32.5-.77.75-1.13.49-.7,1.03-1.38,1.61-2.01.2-.23.57-.66.8-.83.19-.14.32-.11.52-.01s.37.43.57.27l1.25-1.27c.06-.19-.22-.35-.3-.53-.09-.18-.12-.33,0-.51.15-.22.62-.62.84-.81.63-.57,1.31-1.11,2.01-1.61.35-.25.81-.49,1.13-.75.04-.03.09-.07.11-.12-.19-.01-.39.08-.57.14-3.45,1.2-6.97,4.7-8.42,8.02-.13.29-.34.76-.4,1.05-.01.07-.02.13-.01.2Z"/>
            <path class="cls-2" d="M21.19,19.02c.08.08.21.16.28.26l1.39-1.39c-.15-.1-.36-.49-.56-.39l-1.22,1.22c-.06.12.03.22.11.3Z"/>
          </g>
        </g>
      </g>
      <path class="cls-2" d="M35.81,39.6c-1.35,0-2.22-.75-2.63-1.22-.44.47-1.37,1.22-2.72,1.22s-2.22-.75-2.63-1.22c-.44.47-1.37,1.22-2.72,1.22s-2.22-.75-2.63-1.22c-.44.47-1.37,1.22-2.72,1.22-1.95,0-2.88-1.55-2.92-1.61-.1-.17-.04-.38.12-.48.17-.1.38-.04.48.12.03.05.78,1.27,2.31,1.27s2.44-1.27,2.45-1.29l.31-.45.28.47c.03.05.78,1.27,2.32,1.27s2.44-1.27,2.45-1.29l.31-.45.28.47c.03.05.78,1.27,2.32,1.27s2.44-1.27,2.45-1.29l.31-.45.28.47c.03.05.78,1.27,2.32,1.27s2.44-1.27,2.45-1.29c.11-.16.33-.2.49-.09.16.11.2.32.09.48-.04.06-1.09,1.59-3.03,1.59Z"/>
      <path class="cls-2" d="M38.85,35.89h-3.14v-.78h3.14v.78ZM34.13,35.89h-3.14v-.78h3.14v.78ZM29.41,35.89h-3.14v-.78h3.14v.78ZM24.69,35.89h-3.14v-.78h3.14v.78ZM19.97,35.89h-3.14v-.78h3.14v.78Z"/>
      <path class="cls-1" d="M27.83,13.01c6.52,0,13.03,3.06,13.03,3.06v13.98c0,7.35-7.4,12.81-13.03,15.19-5.63-2.37-13.03-7.83-13.03-15.19v-13.98s6.52-3.06,13.03-3.06M27.83,12.44c-6.57,0-13,2.98-13.27,3.11l-.33.15v14.34c0,7.43,7.21,13.11,13.38,15.71l.22.09.22-.09c6.17-2.6,13.38-8.28,13.38-15.71v-14.34l-.33-.15c-.27-.13-6.71-3.11-13.27-3.11h0Z"/>
      <g>
        <polygon class="cls-1" points="2.3 27.03 3.53 26.69 3.59 25.41 4.3 26.48 5.53 26.14 4.73 27.14 5.44 28.22 4.24 27.76 3.43 28.76 3.5 27.48 2.3 27.03"/>
        <polygon class="cls-1" points="2.67 32.65 3.8 32.04 3.56 30.78 4.49 31.66 5.62 31.05 5.07 32.21 6 33.09 4.73 32.92 4.18 34.08 3.94 32.82 2.67 32.65"/>
        <polygon class="cls-1" points="4.35 38.05 5.3 37.2 4.79 36.03 5.9 36.67 6.85 35.82 6.58 37.07 7.69 37.72 6.41 37.85 6.14 39.1 5.62 37.93 4.35 38.05"/>
        <polygon class="cls-1" points="7.18 42.92 7.93 41.88 7.18 40.85 8.4 41.24 9.15 40.2 9.15 41.48 10.37 41.87 9.15 42.27 9.16 43.56 8.4 42.52 7.18 42.92"/>
      </g>
      <g>
        <polygon class="cls-1" points="53.49 27.03 52.25 26.69 52.19 25.41 51.49 26.48 50.25 26.14 51.05 27.14 50.35 28.22 51.55 27.76 52.35 28.76 52.29 27.48 53.49 27.03"/>
        <polygon class="cls-1" points="53.11 32.65 51.99 32.04 52.22 30.78 51.29 31.66 50.17 31.05 50.72 32.21 49.79 33.09 51.06 32.92 51.61 34.08 51.84 32.82 53.11 32.65"/>
        <polygon class="cls-1" points="51.44 38.05 50.48 37.2 51 36.03 49.89 36.67 48.93 35.82 49.21 37.07 48.1 37.72 49.37 37.85 49.65 39.1 50.16 37.93 51.44 38.05"/>
        <polygon class="cls-1" points="48.6 42.92 47.85 41.88 48.61 40.85 47.39 41.24 46.64 40.2 46.63 41.48 45.41 41.87 46.63 42.27 46.63 43.56 47.38 42.52 48.6 42.92"/>
      </g>
    </g>
  </g>
</svg>