<?xml version="1.0" encoding="UTF-8"?>
<svg id="Layer_2" data-name="Layer 2" xmlns="http://www.w3.org/2000/svg" viewBox="0 0 286.57 286.57">
  <defs>
    <style>
      .cls-1 {
        fill: #f4f2ef;
      }

      .cls-2 {
        fill: #1a1816;
      }
    </style>
  </defs>
  <g id="Layer_1-2" data-name="Layer 1">
    <g>
      <g>
        <circle class="cls-2" cx="143.28" cy="143.28" r="141.55"/>
        <path class="cls-1" d="M143.28,286.57C64.28,286.57,0,222.29,0,143.28S64.28,0,143.28,0s143.28,64.28,143.28,143.28-64.28,143.28-143.28,143.28ZM143.28,3.47C66.19,3.47,3.47,66.19,3.47,143.28s62.72,139.81,139.81,139.81,139.81-62.72,139.81-139.81S220.38,3.47,143.28,3.47Z"/>
      </g>
      <path class="cls-1" d="M143.28,250.16c-58.93,0-106.88-47.95-106.88-106.88s47.94-106.88,106.88-106.88,106.88,47.95,106.88,106.88-47.94,106.88-106.88,106.88ZM143.28,39.87c-57.02,0-103.41,46.39-103.41,103.41s46.39,103.41,103.41,103.41,103.41-46.39,103.41-103.41-46.39-103.41-103.41-103.41Z"/>
    </g>
    <g>
      <path class="cls-1" d="M32.8,113.86c-.36,1.34-.93,2.44-1.7,3.29-.77.85-1.7,1.41-2.78,1.69-1.08.28-2.25.25-3.53-.1l-10.57-2.85.81-3.01,10.57,2.85c1.16.31,2.13.24,2.93-.2.8-.45,1.35-1.24,1.66-2.38.31-1.14.23-2.11-.23-2.9-.46-.79-1.27-1.35-2.43-1.66l-10.57-2.85.81-3.01,10.57,2.85c1.28.35,2.31.91,3.1,1.7.79.79,1.3,1.75,1.54,2.87.24,1.12.18,2.36-.18,3.7Z"/>
      <path class="cls-1" d="M35.27,104.11l-15.57-6.83,1.46-3.33,14.65-1.58-11.71-5.13,1.25-2.85,15.57,6.83-1.5,3.42-14.29,1.63,11.38,4.99-1.25,2.85Z"/>
      <path class="cls-1" d="M42.54,88.6l-14.8-8.37,1.53-2.71,14.8,8.37-1.53,2.71Z"/>
      <path class="cls-1" d="M47.37,80.58l-11.83-8.03-2.91,4.28-2.24-1.52,7.55-11.11,2.24,1.52-2.89,4.26,11.83,8.03-1.75,2.58Z"/>
      <path class="cls-1" d="M52.82,72.82l-12.87-11.11,7.48-8.66,2.05,1.77-5.45,6.31,3.35,2.9,5.26-6.09,2.03,1.75-5.26,6.09,3.39,2.93,5.57-6.45,2.05,1.77-7.61,8.81Z"/>
      <path class="cls-1" d="M62.13,62.24l-11.29-12.71,4.23-3.75c2.03-1.8,4.08-2.64,6.15-2.5s4.02,1.22,5.83,3.26c1.8,2.03,2.65,4.07,2.56,6.12-.1,2.05-1.14,3.96-3.14,5.73l-4.33,3.85ZM62.66,58.15l1.9-1.69c1.32-1.18,1.99-2.41,2-3.7s-.63-2.65-1.91-4.1c-1.3-1.47-2.6-2.27-3.88-2.42-1.28-.14-2.58.37-3.91,1.55l-1.9,1.69,7.7,8.66Z"/>
      <path class="cls-1" d="M84.8,45.35c-1.21.72-2.37,1.13-3.5,1.24-1.13.1-2.17-.08-3.13-.54-.96-.46-1.78-1.17-2.47-2.14l2.61-1.79c.46.58.96,1.01,1.51,1.27.54.27,1.12.38,1.73.32.61-.06,1.25-.29,1.92-.69.58-.35,1.02-.71,1.34-1.1.32-.39.5-.78.54-1.19.04-.41-.06-.82-.3-1.23-.22-.37-.51-.65-.86-.84-.35-.19-.86-.25-1.51-.19-.65.06-1.54.28-2.68.65-1.37.45-2.52.72-3.46.8-.94.09-1.72-.04-2.37-.37-.65-.33-1.21-.89-1.68-1.69-.51-.85-.75-1.73-.71-2.63.03-.9.33-1.77.9-2.6.56-.83,1.39-1.57,2.49-2.23,1.16-.7,2.27-1.08,3.33-1.15,1.06-.07,2.04.12,2.94.57.9.45,1.69,1.11,2.37,1.99l-2.62,1.74c-.39-.49-.83-.86-1.32-1.11-.49-.24-1.02-.35-1.59-.32-.57.03-1.16.23-1.77.6-.77.46-1.27,1-1.5,1.61-.24.62-.18,1.21.16,1.79.24.4.53.67.87.82.34.15.81.17,1.4.07.59-.1,1.38-.31,2.36-.62,1.46-.51,2.71-.78,3.73-.81,1.02-.04,1.86.13,2.53.49.67.36,1.22.91,1.65,1.63.53.89.77,1.8.71,2.72-.06.92-.4,1.8-1.01,2.65s-1.47,1.6-2.58,2.26Z"/>
      <path class="cls-1" d="M94.9,39.56l-5.85-13.04-4.72,2.12-1.11-2.47,12.26-5.5,1.11,2.47-4.7,2.11,5.85,13.04-2.84,1.27Z"/>
      <path class="cls-1" d="M100.57,36.81l.65-18.06,3.63-1.16,11.03,14.32-3.1.99-2.57-3.4-6.41,2.05-.12,4.26-3.1.99ZM103.84,28.75l4.67-1.5-4.52-6.1-.16,7.59Z"/>
      <path class="cls-1" d="M119.02,31.47l-2.82-14.02-5.07,1.02-.53-2.65,13.17-2.65.53,2.65-5.05,1.01,2.82,14.02-3.05.61Z"/>
      <path class="cls-1" d="M128.34,29.74l-1.39-16.94,11.41-.94.22,2.7-8.31.68.36,4.42,8.02-.66.22,2.67-8.02.66.37,4.46,8.5-.7.22,2.7-11.6.95Z"/>
      <path class="cls-1" d="M148.91,29.43c-1.4-.06-2.6-.37-3.6-.91-1-.54-1.77-1.27-2.31-2.18-.54-.91-.83-1.96-.88-3.14l3.17-.05c.06.74.25,1.37.55,1.89.3.53.72.93,1.26,1.22s1.2.45,1.98.49c.67.03,1.24-.03,1.72-.17s.85-.38,1.11-.69c.26-.32.4-.71.43-1.19.02-.43-.07-.82-.26-1.17-.19-.35-.58-.68-1.15-.99-.58-.31-1.44-.62-2.59-.95-1.39-.38-2.5-.8-3.32-1.24-.83-.45-1.42-.98-1.77-1.62-.35-.63-.51-1.41-.47-2.33.04-.99.33-1.85.86-2.59.53-.73,1.26-1.29,2.19-1.67.93-.38,2.03-.54,3.31-.48,1.35.06,2.49.36,3.41.89s1.63,1.23,2.13,2.1c.5.87.79,1.86.87,2.96h-3.14c-.05-.62-.21-1.17-.49-1.65-.27-.48-.66-.86-1.15-1.14-.49-.29-1.09-.45-1.81-.48-.89-.04-1.61.13-2.15.51-.54.38-.82.91-.85,1.58-.02.46.07.85.27,1.16.2.31.58.59,1.12.83s1.32.5,2.31.79c1.5.39,2.69.85,3.56,1.38.87.54,1.48,1.14,1.83,1.81.35.67.51,1.43.47,2.27-.05,1.04-.35,1.92-.91,2.66-.56.73-1.33,1.28-2.3,1.64-.98.36-2.11.52-3.4.46Z"/>
      <path class="cls-1" d="M170.28,32.49c-1.63-.39-2.95-1.08-3.96-2.06-1.01-.98-1.68-2.18-1.99-3.62-.32-1.44-.26-3.05.17-4.84.43-1.78,1.12-3.25,2.06-4.39s2.08-1.92,3.42-2.34c1.34-.41,2.83-.42,4.48-.02,1.66.4,2.99,1.09,3.99,2.08,1,.98,1.66,2.2,1.98,3.64s.26,3.06-.18,4.85c-.43,1.78-1.12,3.24-2.06,4.38-.94,1.14-2.08,1.91-3.42,2.31-1.34.41-2.84.41-4.5,0ZM170.91,29.86c1.01.24,1.92.21,2.74-.09.82-.3,1.53-.85,2.12-1.65.6-.8,1.05-1.83,1.35-3.09s.38-2.38.21-3.37c-.16-.99-.54-1.81-1.13-2.47-.59-.65-1.38-1.1-2.37-1.34-.99-.24-1.91-.21-2.73.1-.83.31-1.54.87-2.14,1.67-.6.81-1.05,1.84-1.35,3.1s-.37,2.38-.21,3.36c.16.98.55,1.8,1.15,2.45.6.65,1.39,1.09,2.37,1.32Z"/>
      <path class="cls-1" d="M180.14,34.83l6.19-15.84,10.59,4.14-.99,2.52-9.28-3.63,2.22-1.01-2.84,7.27-1.07-1.93,8.88,3.47-.98,2.5-8.88-3.47,2.1-.7-3.05,7.81-2.9-1.13Z"/>
      <path class="cls-1" d="M196.62,41.71l14.14-11.25,3.24,2-3.71,17.69-2.77-1.71.91-4.17-5.73-3.53-3.31,2.68-2.77-1.71ZM204.87,38.95l4.18,2.58,1.69-7.4-5.87,4.82Z"/>
      <path class="cls-1" d="M211.3,50.79l11.08-12.9,3.18,2.73-5.02,13.05,12.14-6.93,3.18,2.73-11.08,12.9-2.36-2.03,7.64-8.9-10.88,6.09-2.25-1.93,4.38-11.68-7.64,8.9-2.36-2.03Z"/>
      <path class="cls-1" d="M226.64,64.59l12.87-11.11,7.48,8.66-2.05,1.77-5.45-6.31-3.35,2.9,5.26,6.09-2.03,1.75-5.26-6.09-3.39,2.93,5.57,6.45-2.05,1.77-7.61-8.81Z"/>
      <path class="cls-1" d="M235.74,75.35l14.2-9.35,3.91,5.94c.68,1.03,1.09,2.03,1.23,3,.14.97.03,1.88-.33,2.71-.37.83-.98,1.54-1.85,2.11-.65.43-1.33.67-2.02.73-.69.05-1.35-.05-1.96-.33-.62-.27-1.15-.67-1.59-1.2l.13-.23c.61.92.87,1.77.78,2.54-.08.77-.53,1.47-1.34,2.1l-3.86,3.06-1.74-2.64,3.52-2.75c.53-.41.83-.86.88-1.36.06-.5-.16-1.12-.65-1.86l-2.24-3.4-5.36,3.53-1.71-2.6ZM245.09,72.91l2.09,3.18c.52.79,1.11,1.28,1.77,1.47.66.19,1.33.07,2.01-.38.69-.46,1.08-1.03,1.16-1.72.08-.69-.16-1.47-.72-2.32l-2.02-3.06-4.3,2.83Z"/>
      <path class="cls-1" d="M244.26,89.02l15.05-7.91,1.45,2.76-15.05,7.91-1.45-2.76Z"/>
      <path class="cls-1" d="M249.49,101.06c-.58-1.44-.76-2.83-.55-4.2.22-1.36.81-2.6,1.78-3.72.97-1.12,2.31-2.02,4.03-2.71,1.69-.68,3.27-.97,4.75-.86,1.48.11,2.78.57,3.9,1.4,1.12.82,1.97,1.97,2.57,3.45.81,2.01.95,3.78.4,5.29-.55,1.51-1.65,2.8-3.3,3.87l-1.38-2.96c.96-.61,1.6-1.36,1.94-2.23.33-.88.28-1.86-.16-2.96-.36-.89-.91-1.56-1.64-2.02-.74-.46-1.61-.69-2.61-.7-1,0-2.09.22-3.26.7-1.18.48-2.13,1.07-2.83,1.78-.71.71-1.15,1.48-1.35,2.32-.2.84-.12,1.68.23,2.54.47,1.17,1.16,1.95,2.07,2.33.9.38,1.95.44,3.15.16l1.07,3.08c-1.31.29-2.54.32-3.67.09-1.14-.23-2.14-.73-3.01-1.51s-1.58-1.82-2.11-3.14Z"/>
      <path class="cls-1" d="M252.73,108.04l17.98,1.83.92,3.69-15.01,10.06-.79-3.16,3.56-2.34-1.63-6.53-4.25-.4-.79-3.16ZM260.56,111.84l1.19,4.76,6.38-4.11-7.57-.65Z"/>
    </g>
    <g>
      <path class="cls-1" d="M51.83,239.13l11.2-12.79,4.96,4.34c1.5,1.31,2.36,2.7,2.57,4.16.21,1.46-.24,2.82-1.36,4.09-.75.85-1.58,1.42-2.51,1.7-.93.28-1.89.28-2.88-.02s-1.99-.88-2.98-1.75l-2.61-2.29-4.04,4.61-2.34-2.05ZM59.99,234.53l2.5,2.19c.79.69,1.56,1.05,2.29,1.08.73.03,1.4-.3,2-.99.59-.67.82-1.37.69-2.08s-.59-1.42-1.38-2.11l-2.5-2.19-3.6,4.11Z"/>
      <path class="cls-1" d="M64.99,250.17l9.51-14.09,9.49,6.4-1.51,2.24-6.91-4.66-2.48,3.67,6.67,4.5-1.5,2.22-6.67-4.5-2.51,3.71,7.07,4.77-1.51,2.24-9.65-6.51Z"/>
      <path class="cls-1" d="M78.76,259.1l7.59-15.21,6.36,3.17c1.1.55,1.96,1.21,2.57,1.98.61.77.97,1.61,1.07,2.52.1.91-.08,1.82-.54,2.75-.35.7-.81,1.25-1.38,1.64s-1.19.63-1.86.7c-.67.08-1.33,0-1.98-.24v-.27c.99.49,1.64,1.09,1.95,1.8s.28,1.54-.1,2.49l-1.81,4.59-2.83-1.41,1.67-4.15c.26-.62.28-1.16.08-1.62-.2-.46-.7-.88-1.5-1.28l-3.64-1.82-2.86,5.74-2.79-1.39ZM85.62,252.31l3.41,1.7c.84.42,1.6.55,2.27.38s1.19-.61,1.55-1.34c.37-.74.42-1.43.14-2.07-.28-.64-.88-1.19-1.79-1.64l-3.28-1.64-2.3,4.61Z"/>
      <path class="cls-1" d="M95.56,267.18l5.05-16.24,4,1.24.57,13.97,8.39-11.18,4,1.24-5.05,16.24-2.97-.92,3.48-11.21-7.57,9.91-2.84-.88-.62-12.45-3.48,11.2-2.97-.92Z"/>
      <path class="cls-1" d="M117.62,273.26l3.09-16.72,3.06.57-3.09,16.72-3.06-.57Z"/>
      <path class="cls-1" d="M128.52,274.94l1.41-14.23-5.15-.51.27-2.69,13.37,1.33-.27,2.69-5.12-.51-1.41,14.23-3.1-.31Z"/>
      <path class="cls-1" d="M147.32,275.82l-1.28-16.95,6.57-.49c1.99-.15,3.58.21,4.76,1.08s1.84,2.15,1.97,3.84c.08,1.13-.1,2.12-.54,2.98-.45.86-1.12,1.54-2.03,2.04-.91.5-2.02.8-3.34.9l-3.46.26.46,6.11-3.1.23ZM149.76,266.77l3.32-.25c1.05-.08,1.84-.37,2.37-.88s.76-1.21.69-2.12c-.07-.89-.4-1.54-1-1.95-.6-.41-1.42-.58-2.48-.5l-3.32.25.41,5.44Z"/>
      <path class="cls-1" d="M171.87,273.03c-1.64.36-3.12.32-4.46-.11s-2.46-1.23-3.38-2.38c-.92-1.16-1.57-2.63-1.97-4.42-.4-1.79-.42-3.41-.08-4.85s1.03-2.64,2.05-3.6c1.02-.96,2.36-1.62,4.01-1.99,1.67-.37,3.17-.33,4.5.11,1.33.44,2.46,1.25,3.37,2.41.92,1.16,1.57,2.64,1.97,4.43.4,1.79.42,3.41.07,4.84-.35,1.43-1.03,2.63-2.06,3.58-1.02.95-2.37,1.61-4.04,1.98ZM171.29,270.39c1.01-.22,1.82-.65,2.43-1.28.6-.63,1-1.44,1.18-2.42s.14-2.1-.14-3.37c-.28-1.26-.71-2.3-1.29-3.12s-1.28-1.39-2.1-1.72c-.82-.33-1.72-.38-2.72-.16-1,.22-1.8.65-2.41,1.29-.61.64-1.01,1.46-1.19,2.44s-.14,2.11.14,3.38c.28,1.26.71,2.3,1.29,3.11s1.28,1.38,2.1,1.7c.82.32,1.72.37,2.71.15Z"/>
      <path class="cls-1" d="M184.03,269.49l-6.01-15.9,6.65-2.51c1.15-.43,2.22-.62,3.2-.54.98.07,1.84.38,2.58.92.73.54,1.28,1.3,1.65,2.27.28.73.37,1.44.27,2.13-.1.69-.35,1.3-.75,1.84-.4.54-.91.97-1.52,1.29l-.2-.18c1.03-.39,1.91-.46,2.65-.21s1.32.84,1.76,1.77l2.14,4.44-2.96,1.12-1.91-4.04c-.28-.61-.66-1-1.13-1.16s-1.12-.09-1.96.23l-3.81,1.44,2.27,6-2.91,1.1ZM183.71,259.84l3.56-1.35c.88-.33,1.49-.8,1.82-1.41s.36-1.29.07-2.05c-.29-.78-.77-1.28-1.43-1.51-.66-.23-1.47-.16-2.42.2l-3.43,1.29,1.82,4.82Z"/>
      <path class="cls-1" d="M203.66,261.17l-6.7-12.63-4.57,2.42-1.27-2.39,11.87-6.29,1.27,2.39-4.55,2.41,6.7,12.63-2.75,1.46Z"/>
      <path class="cls-1" d="M211.07,257.32l-4.53-17.5,3.14-2.15,14.66,10.58-2.69,1.84-3.44-2.52-5.56,3.8,1.1,4.12-2.69,1.84ZM211.91,248.66l4.05-2.77-6.07-4.55,2.02,7.32Z"/>
      <path class="cls-1" d="M227.16,245.81l-11.3-12.71,2.33-2.07,10.66,11.99-2.43-.18,7.3-6.49,1.8,2.02-8.36,7.43Z"/>
    </g>
    <g>
      <g id="MYVv4R">
        <g>
          <path class="cls-1" d="M131.19,145.39c.21-.1.49.18.67.3,1.79,1.22,7.9,6.71,9.31,8.36.89,1.04.73,2.47-.04,3.55-7.15,7.33-12.38,16.26-22.12,20.42-5.18,2.21-12.55,4.17-18.17,4.38-3.85.14-8.76.19-10.46-3.94-2.76-6.69-.33-21.52,2.27-28.15,3.14-8.02,12.21-14.78,17.5-21.5.82-.56,2.17-.57,2.99,0l9.75,8.97c-3.22,3.88-6.08,8.37-8.41,12.84-.78,1.5-2.04,3.63-2.46,5.2-1.47,5.55,5.44.43,7.33-.81,4.15-2.72,8.43-6.04,11.84-9.64Z"/>
          <path class="cls-1" d="M113.88,156.25c2.24-5.5,5.41-10.61,8.79-15.47l47.2-52.07c.24-4-.06-8.69,1.73-12.47.7-1.48,6.8-8.65,8.1-9.34,1.83-.96,2.65-.47,4.12.61,2.49,1.82,10.1,8.53,11.87,10.82,1.52,1.97,1.02,3.01-.31,4.87-5.11,7.09-10.74,10.47-19.65,10.61l-46.17,50.84c-4.7,4.54-10.06,8.32-15.68,11.61ZM191.61,80.21c-1.52-.69-9.64-8.98-10.27-8.76-.35.12-4.55,4.78-4.97,5.4-1.66,2.43-2.4,7.53-1.9,10.41.32,1.82.66,1.87,2.5,1.97,4.49.24,8.4-1.61,11.43-4.74.54-.56,3.48-3.75,3.21-4.28Z"/>
        </g>
      </g>
      <g id="sUwQS2">
        <g>
          <path class="cls-1" d="M120.48,85.54l-7.5,7.3-.1.49c6.36,5.48,13.04,10.63,19.15,16.39,11.39,10.73,22.74,22.78,33.67,34.06,7.39,7.63,14.42,15.67,21.85,23.24.93.95,1.94,2.57,3.23,1.65.67-.47,4.85-4.64,5.26-5.28.14-.21.29-.4.29-.67l-.38-.78c-8.34-7.79-16.69-15.57-24.89-23.51-11.28-10.93-23.33-22.28-34.06-33.67-5.79-6.14-10.94-12.88-16.52-19.22Z"/>
          <path class="cls-1" d="M80.2,118.51c.34-.16.63-.51.86-.8,1.82-2.24,3.49-5.4,5.23-7.85,3.43-4.84,7.2-9.59,11.18-13.99,1.43-1.58,3.97-4.59,5.56-5.76,1.29-.96,2.26-.79,3.62-.1,1.37.69,2.56,3.02,4,1.87l8.74-8.83c.4-1.34-1.5-2.45-2.12-3.66-.64-1.27-.86-2.28,0-3.52,1.06-1.51,4.35-4.3,5.85-5.66,4.4-3.99,9.15-7.75,13.99-11.18,2.45-1.74,5.61-3.41,7.85-5.23.29-.23.63-.52.8-.86-1.36-.08-2.73.53-4,.97-24.05,8.36-48.55,32.73-58.68,55.89-.88,2.02-2.38,5.28-2.81,7.34-.09.46-.12.91-.09,1.38Z"/>
          <path class="cls-1" d="M97.05,79.6c.53.57,1.48,1.13,1.98,1.82l9.66-9.66c-1.05-.73-2.48-3.38-3.9-2.73l-8.49,8.49c-.41.82.23,1.52.75,2.08Z"/>
        </g>
      </g>
    </g>
    <g>
      <rect class="cls-1" x="53.19" y="194.94" width="12.9" height="5.37"/>
      <path class="cls-1" d="M211.33,200.3h-19.89v-5.37h19.89v5.37ZM182.28,200.3h-19.89v-5.37h19.89v5.37ZM153.23,200.3h-19.89v-5.37h19.89v5.37ZM124.18,200.3h-19.89v-5.37h19.89v5.37ZM95.13,200.3h-19.89v-5.37h19.89v5.37Z"/>
      <rect class="cls-1" x="220.48" y="194.94" width="12.9" height="5.37"/>
    </g>
    <g>
      <polygon class="cls-1" points="11.82 139.55 18.18 137.81 18.49 131.22 22.12 136.74 28.48 135 24.35 140.15 27.98 145.66 21.81 143.33 17.68 148.47 17.99 141.89 11.82 139.55"/>
      <polygon class="cls-1" points="13.75 168.51 19.54 165.35 18.33 158.86 23.12 163.4 28.91 160.24 26.09 166.2 30.88 170.73 24.34 169.88 21.51 175.84 20.3 169.36 13.75 168.51"/>
      <polygon class="cls-1" points="22.38 196.29 27.3 191.9 24.65 185.86 30.35 189.19 35.27 184.8 33.87 191.25 39.56 194.58 33 195.23 31.59 201.68 28.94 195.63 22.38 196.29"/>
      <polygon class="cls-1" points="36.98 221.37 40.84 216.01 36.94 210.69 43.22 212.7 47.07 207.35 47.1 213.95 53.38 215.96 47.12 218.02 47.15 224.62 43.25 219.3 36.98 221.37"/>
    </g>
    <g>
      <polygon class="cls-1" points="275.32 139.55 268.96 137.81 268.64 131.22 265.02 136.74 258.66 135 262.78 140.15 259.16 145.66 265.33 143.33 269.46 148.47 269.15 141.89 275.32 139.55"/>
      <polygon class="cls-1" points="273.39 168.51 267.59 165.35 268.81 158.86 264.02 163.4 258.22 160.24 261.05 166.2 256.26 170.73 262.8 169.88 265.63 175.84 266.84 169.36 273.39 168.51"/>
      <polygon class="cls-1" points="264.76 196.29 259.84 191.9 262.49 185.86 256.79 189.19 251.87 184.8 253.27 191.25 247.58 194.58 254.14 195.23 255.55 201.68 258.2 195.63 264.76 196.29"/>
      <polygon class="cls-1" points="250.16 221.37 246.3 216.01 250.2 210.69 243.92 212.7 240.07 207.35 240.04 213.95 233.76 215.96 240.02 218.02 239.99 224.62 243.89 219.3 250.16 221.37"/>
    </g>
    <path class="cls-1" d="M206.16,224.44c-7.94,0-13.04-4.33-15.54-7.17-2.68,2.81-8.12,7.17-16.07,7.17s-13.04-4.33-15.54-7.17c-2.68,2.81-8.12,7.17-16.07,7.17s-13.04-4.33-15.54-7.17c-2.68,2.81-8.12,7.17-16.07,7.17s-13.04-4.33-15.54-7.17c-2.68,2.81-8.12,7.17-16.07,7.17-2.73,0-5.28-.68-7.73-1.71l-.97-1.38.58-3.37,2.03.85c1.91.8,3.96,1.21,6.1,1.21,9.1,0,14.13-7.22,14.34-7.53l1.95-2.86,1.76,2.98c.18.3,4.56,7.42,13.56,7.42s14.13-7.22,14.34-7.53l1.95-2.86,1.76,2.98c.18.3,4.56,7.42,13.56,7.42s14.13-7.22,14.34-7.53l1.95-2.86,1.76,2.98c.18.3,4.56,7.42,13.56,7.42s14.13-7.22,14.34-7.53l1.95-2.86,1.76,2.98c.18.3,4.56,7.42,13.56,7.42,2.1,0,4.16-.39,6.12-1.17.44-.17.89-.37,1.33-.6l1.97-.98.84,2.83-.95,1.86c-.56.28-1.02.76-1.57.98-2.47.98-5.08,1.48-7.74,1.48Z"/>
  </g>
</svg>