<?xml version="1.0" encoding="UTF-8"?>
<svg id="Layer_2" data-name="Layer 2" xmlns="http://www.w3.org/2000/svg" viewBox="0 0 2000 2000">
  <defs>
    <style>
      .cls-1 {
        fill: #f4f2ef;
      }

      .cls-2 {
        fill: #191919;
      }
    </style>
  </defs>
  <g id="Layer_1-2" data-name="Layer 1">
    <g>
      <path class="cls-2" d="M1000,11.51C454.95,11.51,11.51,454.95,11.51,1000s443.43,988.48,988.49,988.48,988.49-443.43,988.49-988.48S1545.05,11.51,1000,11.51Z"/>
      <g>
        <g>
          <path class="cls-1" d="M267.77,671.72c-3.47,7.73-7.95,13.77-13.43,18.14-5.48,4.37-11.6,6.88-18.35,7.53-6.75.65-13.81-.68-21.18-3.99l-60.87-27.34,7.78-17.32,60.87,27.34c6.66,2.99,12.61,3.53,17.84,1.61,5.24-1.92,9.33-6.16,12.28-12.73,2.95-6.57,3.42-12.47,1.39-17.7-2.03-5.23-6.37-9.34-13.03-12.33l-60.87-27.34,7.78-17.32,60.87,27.34c7.37,3.31,13.04,7.73,17.02,13.25,3.98,5.52,6.15,11.78,6.53,18.78.38,7-1.17,14.36-4.64,22.09Z"/>
          <path class="cls-1" d="M292.06,614.94l-88.25-54.4,11.65-18.89,89.82,2.88-66.37-40.91,9.96-16.16,88.25,54.4-11.95,19.39-87.65-2.23,64.51,39.77-9.96,16.16Z"/>
          <path class="cls-1" d="M348.86,527.18l-83.11-61.96,11.34-15.22,83.12,61.96-11.35,15.22Z"/>
          <path class="cls-1" d="M384.23,482.02l-66.01-56.93-20.6,23.89-12.5-10.78,53.5-62.03,12.5,10.77-20.5,23.78,66.01,56.93-12.4,14.37Z"/>
          <path class="cls-1" d="M422.73,438.55l-71.29-75.27,50.68-47.99,11.35,11.98-36.9,34.94,18.58,19.61,35.62-33.74,11.24,11.87-35.62,33.74,18.77,19.82,37.74-35.74,11.35,11.98-51.52,48.79Z"/>
          <path class="cls-1" d="M485.86,379.78l-62.15-82.98,27.58-20.66c13.24-9.92,26.13-13.95,38.66-12.08,12.53,1.87,23.78,9.46,33.76,22.79,9.92,13.24,14.06,26.08,12.42,38.5-1.64,12.42-8.97,23.5-21.98,33.25l-28.28,21.18ZM491.16,355.2l12.39-9.28c8.65-6.48,13.33-13.63,14.03-21.45.7-7.83-2.47-16.45-9.53-25.88-7.18-9.58-14.62-15.13-22.33-16.66-7.71-1.53-15.89.95-24.54,7.43l-12.39,9.28,42.37,56.56Z"/>
          <path class="cls-1" d="M631.86,287.01c-7.6,3.96-14.86,6.03-21.77,6.24-6.92.2-13.2-1.28-18.85-4.43-5.65-3.15-10.39-7.79-14.24-13.91l16.56-9.94c2.59,3.7,5.48,6.48,8.69,8.32,3.21,1.84,6.67,2.7,10.39,2.57s7.69-1.29,11.93-3.49c3.63-1.89,6.48-3.95,8.55-6.18s3.32-4.58,3.74-7.05c.42-2.47-.05-5-1.4-7.59-1.21-2.33-2.86-4.13-4.95-5.41-2.09-1.27-5.13-1.83-9.11-1.68-3.98.16-9.51,1.14-16.57,2.95-8.5,2.23-15.61,3.44-21.33,3.61-5.72.18-10.48-.85-14.29-3.09-3.8-2.25-7.01-5.87-9.62-10.88-2.79-5.35-3.91-10.78-3.37-16.27.54-5.49,2.68-10.67,6.41-15.52,3.73-4.85,9.05-9.07,15.96-12.67,7.34-3.82,14.24-5.74,20.71-5.76,6.47-.02,12.36,1.5,17.68,4.54,5.31,3.05,9.87,7.37,13.66,12.97l-16.56,9.61c-2.19-3.14-4.73-5.55-7.63-7.22s-6.08-2.51-9.54-2.52-7.14,1-11.02,3.02c-4.84,2.52-8.09,5.61-9.74,9.27s-1.55,7.3.34,10.93c1.3,2.51,2.97,4.27,4.98,5.31s4.84,1.35,8.47.94c3.63-.41,8.5-1.38,14.61-2.92,9.1-2.54,16.77-3.73,23-3.57s11.3,1.47,15.22,3.93c3.91,2.46,7.06,5.98,9.45,10.56,2.92,5.61,4.03,11.21,3.31,16.8-.72,5.58-3.09,10.82-7.12,15.72s-9.55,9.17-16.54,12.81Z"/>
          <path class="cls-1" d="M695.57,254.94l-32.04-81.07-29.33,11.59-6.06-15.35,76.18-30.11,6.06,15.35-29.2,11.54,32.04,81.07-17.65,6.98Z"/>
          <path class="cls-1" d="M731.14,239.83l7.42-109.96,22.32-6.39,64.46,89.39-19.09,5.46-15.03-21.21-39.45,11.28-1.54,25.96-19.09,5.46ZM752.64,191.31l28.78-8.23-26.37-38.02-2.41,46.25Z"/>
          <path class="cls-1" d="M844.67,210.33l-15.71-85.74-31.02,5.69-2.98-16.23,80.58-14.77,2.97,16.23-30.88,5.66,15.71,85.74-18.67,3.42Z"/>
          <path class="cls-1" d="M901.94,200.64l-8.25-103.34,69.58-5.56,1.31,16.45-50.65,4.05,2.15,26.93,48.91-3.91,1.3,16.3-48.9,3.91,2.17,27.22,51.82-4.14,1.32,16.45-70.74,5.65Z"/>
          <path class="cls-1" d="M1027.89,198.22c-8.56-.27-15.91-2.02-22.04-5.23-6.13-3.21-10.89-7.58-14.27-13.09s-5.25-11.87-5.6-19.09l19.3-.56c.44,4.49,1.61,8.33,3.51,11.5,1.9,3.18,4.5,5.62,7.8,7.33s7.34,2.64,12.11,2.79c4.09.13,7.58-.27,10.48-1.2,2.9-.93,5.14-2.37,6.71-4.32,1.57-1.94,2.4-4.38,2.5-7.3.08-2.63-.48-5-1.67-7.14-1.2-2.13-3.57-4.11-7.12-5.92-3.55-1.81-8.85-3.66-15.89-5.54-8.5-2.21-15.29-4.65-20.37-7.29-5.08-2.64-8.73-5.88-10.94-9.7-2.22-3.82-3.23-8.55-3.06-14.19.19-6.03,1.87-11.31,5.03-15.84,3.16-4.52,7.56-7.99,13.18-10.39,5.63-2.4,12.33-3.48,20.12-3.23,8.27.26,15.23,1.97,20.88,5.12,5.65,3.15,10.04,7.36,13.19,12.62,3.14,5.26,5,11.26,5.56,18l-19.15.27c-.37-3.81-1.41-7.15-3.11-10.03-1.71-2.88-4.07-5.17-7.09-6.87-3.01-1.7-6.71-2.63-11.09-2.76-5.45-.17-9.8.93-13.03,3.31-3.24,2.38-4.93,5.62-5.06,9.7-.09,2.82.49,5.18,1.75,7.07,1.26,1.89,3.56,3.55,6.93,4.97,3.36,1.42,8.09,2.96,14.17,4.61,9.18,2.24,16.45,4.95,21.8,8.14,5.35,3.19,9.13,6.82,11.34,10.88,2.21,4.07,3.23,8.68,3.07,13.83-.2,6.33-1.98,11.75-5.34,16.27-3.36,4.52-7.99,7.93-13.91,10.22-5.92,2.29-12.81,3.32-20.7,3.07Z"/>
          <path class="cls-1" d="M1159,213.51c-10.02-2.02-18.23-5.88-24.63-11.58-6.4-5.7-10.73-12.9-13.01-21.61-2.27-8.7-2.3-18.53-.09-29.51,2.21-10.97,6.04-20.06,11.51-27.25,5.47-7.19,12.23-12.21,20.3-15.05s17.16-3.25,27.28-1.22c10.21,2.05,18.49,5.95,24.83,11.7,6.34,5.74,10.64,12.99,12.9,21.73,2.26,8.75,2.29,18.61.08,29.58-2.21,10.98-6.04,20.03-11.5,27.18-5.46,7.15-12.22,12.11-20.27,14.91-8.06,2.8-17.2,3.17-27.41,1.11ZM1162.25,197.33c6.2,1.25,11.77.85,16.7-1.19,4.93-2.04,9.11-5.56,12.55-10.58,3.44-5.01,5.94-11.39,7.5-19.12,1.56-7.73,1.72-14.6.5-20.6-1.23-6.01-3.71-10.92-7.46-14.76-3.75-3.83-8.68-6.36-14.78-7.59-6.11-1.23-11.65-.8-16.64,1.27-4.98,2.08-9.2,5.65-12.66,10.71-3.45,5.07-5.95,11.46-7.51,19.19-1.56,7.73-1.72,14.57-.48,20.53,1.23,5.96,3.75,10.83,7.56,14.63,3.8,3.79,8.71,6.3,14.73,7.51Z"/>
          <path class="cls-1" d="M1220.05,225.21l32.26-98.53,65.91,21.58-5.14,15.68-57.72-18.9,13.17-6.9-14.81,45.24-7.17-11.41,55.23,18.08-5.09,15.54-55.23-18.08,12.53-4.96-15.9,48.57-18.04-5.9Z"/>
          <path class="cls-1" d="M1323.23,261.35l80.59-75.17,20.65,10.6-14.07,109.3-17.67-9.07,3.53-25.76-36.5-18.73-18.86,17.89-17.67-9.06ZM1372.1,240.63l26.63,13.67,6.75-45.77-33.38,32.11Z"/>
          <path class="cls-1" d="M1417.08,309.7l59.53-84.88,20.92,14.67-22.68,82.18,69.54-49.32,20.92,14.67-59.52,84.88-15.54-10.9,41.08-58.58-62.39,43.45-14.82-10.39,19.6-73.47-41.08,58.58-15.54-10.9Z"/>
          <path class="cls-1" d="M1518.93,384.22l70.04-76.43,51.46,47.15-11.15,12.17-37.46-34.33-18.25,19.91,36.17,33.15-11.05,12.06-36.17-33.15-18.45,20.13,38.33,35.12-11.15,12.16-52.32-47.94Z"/>
          <path class="cls-1" d="M1581.94,443.07l78.22-68.04,28.46,32.72c4.92,5.66,8.21,11.37,9.88,17.14,1.67,5.78,1.73,11.33.18,16.68s-4.71,10.09-9.48,14.24c-3.6,3.13-7.46,5.14-11.6,6.02-4.14.89-8.18.76-12.13-.38-3.96-1.14-7.5-3.13-10.61-5.96l.63-1.51c4.41,5.07,6.67,9.97,6.79,14.7.12,4.73-2.02,9.33-6.39,13.79l-20.86,21.63-12.65-14.54,19.06-19.48c2.89-2.9,4.3-5.87,4.24-8.92-.06-3.04-1.89-6.62-5.46-10.73l-16.29-18.73-29.52,25.68-12.46-14.32ZM1636.48,420.78l15.23,17.52c3.77,4.33,7.74,6.82,11.9,7.45,4.16.64,8.12-.68,11.86-3.93,3.82-3.32,5.69-7.11,5.6-11.36s-2.17-8.72-6.26-13.42l-14.66-16.86-23.69,20.6Z"/>
          <path class="cls-1" d="M1644.89,518.72l83.76-61.09,11.18,15.34-83.76,61.09-11.19-15.34Z"/>
          <path class="cls-1" d="M1687.71,586.68c-4.89-8.08-7.34-16.32-7.36-24.73-.02-8.41,2.35-16.44,7.1-24.09s11.96-14.4,21.63-20.25c9.5-5.74,18.75-9.01,27.77-9.8,9.02-.79,17.29.75,24.81,4.62,7.52,3.87,13.79,9.97,18.83,18.3,6.85,11.33,9.36,21.81,7.51,31.46-1.84,9.65-7.23,18.48-16.15,26.49l-11.15-16.46c5.18-4.61,8.34-9.71,9.51-15.31s-.11-11.48-3.84-17.64c-3.02-5-6.97-8.52-11.85-10.57-4.88-2.05-10.34-2.62-16.39-1.69s-12.35,3.37-18.93,7.35c-6.67,4.03-11.77,8.51-15.33,13.45-3.56,4.94-5.52,10.02-5.88,15.25s.91,10.25,3.83,15.09c3.98,6.58,8.88,10.59,14.69,12.02s12.19.73,19.12-2.1l9.4,17.52c-7.62,3.01-14.96,4.38-22.01,4.1-7.06-.29-13.59-2.34-19.59-6.15-6.01-3.82-11.25-9.44-15.73-16.85Z"/>
          <path class="cls-1" d="M1714.17,625.87l109.88-8.4,9.51,21.18-79.24,76.59-8.14-18.11,18.85-17.91-16.82-37.43-25.91,2.2-8.14-18.11ZM1765.28,640.2l12.27,27.3,33.85-31.54-46.12,4.24Z"/>
        </g>
        <g>
          <path class="cls-1" d="M427.61,1698.3l62.46-82.74,32.05,24.19c9.71,7.33,15.53,15.38,17.45,24.15,1.92,8.76-.23,17.27-6.45,25.5-4.16,5.52-9,9.33-14.51,11.46-5.51,2.13-11.35,2.51-17.51,1.14-6.17-1.36-12.48-4.48-18.93-9.35l-16.9-12.76-22.52,29.83-15.15-11.43ZM475.22,1666.73l16.2,12.22c5.13,3.87,9.92,5.72,14.38,5.55,4.46-.17,8.36-2.47,11.7-6.9,3.29-4.35,4.38-8.67,3.3-12.97-1.09-4.3-4.2-8.38-9.32-12.25l-16.2-12.23-20.06,26.57Z"/>
          <path class="cls-1" d="M514.38,1761.13l52.59-89.34,60.15,35.41-8.37,14.22-43.79-25.78-13.7,23.28,42.28,24.89-8.3,14.1-42.28-24.89-13.85,23.53,44.79,26.37-8.37,14.21-61.16-36Z"/>
          <path class="cls-1" d="M603.83,1811.64l41.5-95,39.74,17.36c6.87,3,12.29,6.75,16.28,11.25,3.98,4.5,6.42,9.5,7.32,14.99.89,5.49.07,11.14-2.46,16.94-1.91,4.37-4.54,7.84-7.89,10.41-3.35,2.57-7.06,4.19-11.13,4.86-4.06.67-8.11.39-12.14-.84l-.08-1.63c6.15,2.69,10.3,6.14,12.44,10.37,2.14,4.23,2.18,9.29.13,15.2l-9.57,28.48-17.66-7.71,8.86-25.76c1.37-3.87,1.37-7.16.01-9.88-1.36-2.72-4.54-5.17-9.54-7.35l-22.75-9.94-15.66,35.86-17.4-7.6ZM643.55,1768.13l21.28,9.29c5.26,2.3,9.91,2.85,13.95,1.63,4.03-1.21,7.05-4.1,9.03-8.65,2.03-4.63,2.09-8.85.19-12.66s-5.7-6.95-11.41-9.44l-20.48-8.94-12.56,28.76Z"/>
          <path class="cls-1" d="M710.79,1856.51l27.16-100.05,24.66,6.7,6.58,85,48.66-70.01,24.66,6.7-27.16,100.05-18.32-4.97,18.74-69.05-43.93,62.06-17.47-4.74-6.52-75.76-18.74,69.05-18.32-4.97Z"/>
          <path class="cls-1" d="M848.86,1889.57l16.16-102.4,18.75,2.96-16.16,102.41-18.75-2.96Z"/>
          <path class="cls-1" d="M918.26,1898.53l6.89-86.9-31.44-2.5,1.31-16.44,81.66,6.47-1.3,16.45-31.3-2.48-6.89,86.9-18.92-1.5Z"/>
          <path class="cls-1" d="M1054.01,1901.28l-10.29-103.16,39.96-3.99c12.1-1.21,21.84.76,29.2,5.89,7.36,5.14,11.55,12.84,12.58,23.11.69,6.88-.27,12.96-2.87,18.26-2.6,5.3-6.63,9.54-12.08,12.73-5.46,3.18-12.2,5.18-20.24,5.98l-21.07,2.11,3.71,37.19-18.89,1.89ZM1067.55,1845.79l20.2-2.02c6.39-.64,11.17-2.53,14.32-5.68,3.16-3.15,4.46-7.49,3.91-13.01-.54-5.43-2.67-9.35-6.38-11.76s-8.77-3.31-15.16-2.67l-20.2,2.02,3.31,33.13Z"/>
          <path class="cls-1" d="M1205.72,1880.97c-9.96,2.31-19.03,2.2-27.21-.34-8.19-2.54-15.12-7.3-20.79-14.28s-9.77-15.92-12.31-26.82c-2.54-10.9-2.81-20.76-.81-29.57,2-8.81,6.08-16.18,12.25-22.11,6.16-5.93,14.27-10.07,24.32-12.41,10.14-2.36,19.29-2.24,27.44.36,8.15,2.6,15.07,7.41,20.75,14.43,5.68,7.03,9.79,15.99,12.33,26.89,2.54,10.91,2.8,20.74.79,29.5s-6.1,16.09-12.28,21.97c-6.18,5.88-14.34,10.01-24.48,12.37ZM1201.98,1864.89c6.16-1.43,11.06-4.1,14.71-7.99,3.64-3.9,5.99-8.84,7.04-14.83,1.05-6,.69-12.83-1.1-20.51-1.79-7.68-4.48-14-8.09-18.96s-7.9-8.41-12.9-10.34c-5-1.93-10.53-2.19-16.6-.78-6.07,1.41-10.94,4.1-14.62,8.05s-6.04,8.95-7.08,14.99c-1.04,6.04-.67,12.9,1.12,20.58,1.79,7.68,4.47,13.97,8.07,18.89,3.59,4.91,7.9,8.3,12.94,10.18s10.54,2.12,16.51.73Z"/>
          <path class="cls-1" d="M1281.78,1858.13l-36.54-97.02,40.58-15.28c7.01-2.64,13.52-3.74,19.51-3.29,5.99.45,11.22,2.33,15.7,5.63,4.47,3.31,7.82,7.93,10.05,13.84,1.68,4.47,2.22,8.79,1.61,12.97-.61,4.19-2.14,7.93-4.58,11.25-2.45,3.31-5.54,5.94-9.29,7.87l-1.2-1.11c6.28-2.37,11.67-2.78,16.15-1.24,4.48,1.54,8.04,5.14,10.69,10.8l13.01,27.09-18.04,6.79-11.62-24.64c-1.71-3.73-4.01-6.09-6.88-7.08s-6.86-.54-11.96,1.38l-23.23,8.75,13.79,36.62-17.76,6.7ZM1279.89,1799.24l21.73-8.19c5.37-2.02,9.08-4.87,11.13-8.56,2.05-3.68,2.19-7.85.44-12.5-1.78-4.74-4.68-7.8-8.69-9.2s-8.93-1-14.76,1.19l-20.91,7.88,11.07,29.38Z"/>
          <path class="cls-1" d="M1404.07,1806.85l-39.91-77.49-28.04,14.44-7.55-14.67,72.82-37.51,7.56,14.67-27.91,14.38,39.92,77.49-16.88,8.69Z"/>
          <path class="cls-1" d="M1451.78,1782.56l-25.41-107.24,19.43-12.7,88,66.34-16.63,10.86-20.63-15.82-34.35,22.45,6.21,25.25-16.62,10.86ZM1457.97,1729.85l25.06-16.37-36.43-28.53,11.37,44.9Z"/>
          <path class="cls-1" d="M1553.46,1713.13l-66.39-79.63,14.58-12.16,62.65,75.14-14.79-1.54,45.76-38.15,10.56,12.67-52.37,43.67Z"/>
        </g>
      </g>
      <path class="cls-1" d="M1000,0C448.6,0,0,448.6,0,1000s448.6,1000,1000,1000,1000-448.6,1000-1000S1551.4,0,1000,0ZM1000,1976.15c-538.25,0-976.15-437.9-976.15-976.15S461.75,23.85,1000,23.85s976.15,437.9,976.15,976.15-437.9,976.15-976.15,976.15Z"/>
      <g>
        <polygon class="cls-1" points="1911.3 1033.7 1871.39 1018.96 1873.07 976.44 1846.71 1009.85 1806.8 995.11 1830.43 1030.5 1804.07 1063.91 1845.03 1052.37 1868.66 1087.76 1870.35 1045.24 1911.3 1033.7"/>
        <polygon class="cls-1" points="1885.76 1218.21 1849.78 1195.5 1860.26 1154.25 1827.54 1181.46 1791.55 1158.75 1807.32 1198.27 1774.6 1225.48 1817.06 1222.7 1832.82 1262.23 1843.3 1220.98 1885.76 1218.21"/>
        <polygon class="cls-1" points="1899.19 850.93 1857.02 845.22 1849.43 803.35 1830.96 841.69 1788.8 835.97 1819.55 865.38 1801.09 903.72 1838.56 883.56 1869.32 912.96 1861.72 871.1 1899.19 850.93"/>
        <polygon class="cls-1" points="1824.31 1394.41 1793.64 1364.92 1812.21 1326.63 1774.68 1346.69 1744.01 1317.19 1751.49 1359.08 1713.96 1379.14 1756.11 1384.97 1763.58 1426.86 1782.16 1388.58 1824.31 1394.41"/>
        <polygon class="cls-1" points="1727.1 1552.45 1703.58 1516.99 1730.03 1483.66 1689.04 1495.08 1665.51 1459.62 1663.7 1502.14 1622.71 1513.56 1662.58 1528.41 1660.78 1570.93 1687.23 1537.59 1727.1 1552.45"/>
      </g>
      <path class="cls-1" d="M997.24,1728.76c-404.85,0-734.22-329.37-734.22-734.22S592.39,260.33,997.24,260.33s734.22,329.37,734.22,734.22-329.37,734.22-734.22,734.22ZM997.24,284.17c-391.7,0-710.37,318.67-710.37,710.37s318.67,710.37,710.37,710.37,710.37-318.67,710.37-710.37-318.67-710.37-710.37-710.37Z"/>
      <g>
        <polygon class="cls-1" points="90.47 1033.7 130.39 1018.96 128.71 976.44 155.06 1009.85 194.98 995.11 171.35 1030.5 197.7 1063.91 156.74 1052.37 133.11 1087.76 131.43 1045.24 90.47 1033.7"/>
        <polygon class="cls-1" points="116.01 1218.21 152 1195.5 141.51 1154.25 174.23 1181.46 210.22 1158.75 194.46 1198.27 227.18 1225.48 184.72 1222.7 168.95 1262.23 158.47 1220.98 116.01 1218.21"/>
        <polygon class="cls-1" points="102.58 850.93 144.75 845.22 152.35 803.35 170.81 841.69 212.98 835.97 182.22 865.38 200.69 903.72 163.21 883.56 132.46 912.96 140.05 871.1 102.58 850.93"/>
        <polygon class="cls-1" points="177.47 1394.41 208.14 1364.92 189.56 1326.63 227.09 1346.69 257.76 1317.19 250.29 1359.08 287.82 1379.14 245.67 1384.97 238.19 1426.86 219.62 1388.58 177.47 1394.41"/>
        <polygon class="cls-1" points="274.67 1552.45 298.2 1516.99 271.75 1483.66 312.74 1495.08 336.27 1459.62 338.07 1502.14 379.07 1513.56 339.19 1528.41 341 1570.93 314.55 1537.59 274.67 1552.45"/>
      </g>
      <g>
        <path class="cls-1" d="M990.06,498.76l8.43,153.91h4.89s6.57-153.95,6.57-153.95c.1-5.19-4.39-9.43-9.96-9.42-5.57.01-10.04,4.28-9.92,9.46Z"/>
        <polygon class="cls-1" points="961.86 462.28 999.61 435.37 1036.86 462.95 1022.93 418.74 1060.67 391.83 1014.32 391.42 1000.39 347.21 985.68 391.16 939.33 390.75 976.58 418.33 961.86 462.28"/>
        <path class="cls-1" d="M863.13,528.22c-5.31,1.58-8.21,6.91-6.43,11.82l65.72,128.23,4.28-2.36-51.04-131.51c-1.57-4.97-7.23-7.75-12.54-6.17Z"/>
        <path class="cls-1" d="M1143.29,540.04c1.78-4.91-1.12-10.24-6.43-11.82-5.31-1.58-10.96,1.2-12.54,6.17l-51.13,131.74,4.37,2.14,65.72-128.23Z"/>
        <path class="cls-1" d="M856.43,705.17l3.39-3.35-170.82-206.07c-3.22-4.23-9.55-5.18-14.02-2.1-4.48,3.08-5.36,8.98-1.96,13.1l183.41,198.43Z"/>
        <path class="cls-1" d="M1143.57,705.17l183.41-198.43c3.4-4.11,2.51-10.02-1.96-13.1-4.48-3.08-10.8-2.13-14.02,2.1l-170.91,206.18,3.48,3.25Z"/>
        <polygon class="cls-1" points="812.44 463.86 816.15 506.26 838.07 469.78 879.53 479.35 851.61 447.24 873.53 410.76 834.36 427.39 806.44 395.28 810.15 437.67 770.98 454.29 812.44 463.86"/>
        <polygon class="cls-1" points="1161.93 469.78 1183.85 506.26 1187.56 463.86 1229.02 454.29 1189.85 437.67 1193.56 395.28 1165.64 427.39 1126.47 410.76 1148.39 447.24 1120.47 479.35 1161.93 469.78"/>
      </g>
      <g>
        <path class="cls-1" d="M781.34,1334.01l-61.21.25c-3.59.49-7.32,1-11.16,1.54-26.89,3.75-59.12,8.67-84.45,16.39,12.93,3.5,26.96,6.51,40.97,8.99,9.34,1.65,18.67,3.07,27.66,4.25,13.48,1.77,26.2,2.99,37.03,3.63l58.74-.21c-4.35-10.8-8.19-23.95-7.57-34.84Z"/>
        <path class="cls-1" d="M1211.1,1367.34l98.94-.35v-35.17l-92.05.38c1.15,10.73-2.54,24.02-6.88,35.14Z"/>
        <path class="cls-1" d="M1323.35,1369.8c2.35,2.42,4.71,4.75,7.08,6.93.55.5,1.1,1.02,1.65,1.51,2.88,2.56,5.77,4.95,8.7,7.16.56.43,1.13.83,1.69,1.24,3.05,2.23,6.13,4.33,9.27,6.2.04.02.07.04.11.06,3.12,1.85,6.3,3.47,9.53,4.97.59.27,1.17.56,1.76.82,3.16,1.4,6.37,2.63,9.66,3.7.64.21,1.29.4,1.93.59,3.42,1.05,6.9,1.98,10.49,2.7.07.01.15.02.22.04,3.56.7,7.23,1.2,10.97,1.58.68.07,1.35.15,2.03.21,3.7.32,7.5.49,11.4.51.91,0,1.83,0,2.75-.02,2.39-.03,4.82-.11,7.29-.24,1-.05,1.99-.1,3-.17,3.41-.24,6.87-.54,10.44-.96,8.83-1.05,13.27-2.08,15.72-7.17.82-1.69,1.42-3.84,1.88-6.58.62-3.65,1.03-9.8,1.26-17.24.18-5.58.25-11.88.25-18.4-.01-15.21-.48-31.59-1.2-42.64-.21-3.16-.43-5.88-.67-8.02-.27-2.39-.52-4.39-.88-6.08-.89-4.23-2.46-6.58-6.68-8.59-.85-.4-1.8-.79-2.87-1.18-.34-.12-.86-.23-1.46-.33-.15-.03-.31-.05-.48-.07-.64-.09-1.35-.17-2.2-.25-.02,0-.04,0-.06,0-.88-.07-1.89-.13-2.95-.18-.28-.01-.57-.03-.86-.04-1.06-.04-2.17-.08-3.37-.11-.06,0-.12,0-.18,0-1.26-.03-2.62-.04-4.01-.05-.35,0-.71,0-1.08,0-1.35,0-2.74,0-4.17,0-.07,0-.14,0-.21,0-1.5.01-3.05.04-4.61.07-.39,0-.78.01-1.18.02-1.51.03-3.04.07-4.58.11-.07,0-.14,0-.22,0-1.58.05-3.16.11-4.74.17-.42.02-.84.03-1.26.05-1.48.06-2.95.13-4.39.2-.11,0-.22.01-.33.02-1.54.08-3.03.17-4.49.26-.34.02-.67.04-1,.06-1.46.1-2.89.2-4.24.3,0,0,0,0,0,0-1.34.11-2.59.22-3.78.34-.29.03-.57.06-.85.09-2.31.24-4.29.5-5.83.77-.19.03-.37.07-.55.1-.72.14-1.36.28-1.83.43-8.23,2.56-15.87,6.89-23.16,12.05-5.47,3.87-10.75,8.21-15.93,12.62-1.73,1.47-3.44,2.95-5.15,4.42-2.58,2.23-5.11,4.34-7.64,6.46v41.55ZM1343.83,1346.43c.58-1.22,1.54-2.62,2.89-4.38,1.07-1.39,2.32-2.83,3.73-4.28,2.81-2.9,6.22-5.86,9.94-8.65,3.72-2.79,7.76-5.41,11.82-7.64,2.03-1.11,4.07-2.12,6.08-3.01,4.02-1.76,7.91-3.02,11.41-3.52.23-.03.59-.07,1.04-.1.13,0,.31-.02.45-.03.35-.02.71-.04,1.16-.06.24-.01.53-.02.8-.03.42-.02.84-.03,1.32-.05.29,0,.61-.02.92-.03.52-.01,1.05-.03,1.62-.04.35,0,.71-.02,1.08-.02.56-.01,1.11-.02,1.7-.03.43,0,.86-.01,1.3-.02.56,0,1.13-.02,1.7-.02.47,0,.93-.01,1.4-.02.58,0,1.16-.01,1.75-.01.48,0,.96,0,1.44,0,.61,0,1.21,0,1.81,0,.3,0,.61,0,.91,0,.16,0,.32,0,.48,0,.45,0,.88,0,1.32,0,.5,0,1,0,1.49,0,.43,0,.85,0,1.26.01.49,0,.96.01,1.43.02.4,0,.79.01,1.17.02.45,0,.88.02,1.3.03.34,0,.68.02,1,.03.43.01.82.03,1.2.04.27.01.55.02.8.03.37.02.68.04.99.06.21.01.44.03.63.04.31.02.54.05.77.08.11.01.26.02.36.04.29.04.49.09.58.14,0,0,0,0,0,0,.18.1.33.4.47.9.14.49.25,1.17.35,2.01.3,2.52.44,6.5.5,11.25.08,6.34.02,14.06-.01,21.58-.01,3.76-.02,7.46,0,10.92.06,8.64.31,15.7,1.09,18.08,0,0,0,0,0,0-.1.25-.41.47-.83.68-.08.04-.14.08-.22.11-.45.19-1.02.36-1.71.51-.13.03-.27.06-.41.08-.74.15-1.55.29-2.46.4-.02,0-.04,0-.06,0-.92.12-1.93.21-2.96.3-.17.01-.34.03-.51.04-1.03.08-2.08.14-3.15.2-.19,0-.38.02-.58.03-1.09.05-2.18.09-3.24.12,0,0-.01,0-.02,0-1.08.03-2.11.05-3.1.06-.17,0-.33,0-.49,0-.94.01-1.81.02-2.6.02-.04,0-.09,0-.13,0-.11,0-.18,0-.28,0-.45,0-.86,0-1.23,0-.17,0-.33,0-.48,0-.43,0-.81-.01-1.08-.02-7.83-.2-15.44-1.42-22.61-3.75-7.17-2.33-13.9-5.76-19.99-10.39-4.06-3.08-7.84-6.7-11.27-10.86-4.22-5.13-5.79-7.19-4.04-10.86Z"/>
        <path class="cls-1" d="M1129.37,1358.02c-2.37-8.38-4.33-17.45-3.53-25.43l-52.62.22-42.62.18-30.89,15.68-.41.21-1.79-.91-28.92-14.73-45.04.19-49.84.21c.53,7.72-1.38,16.37-3.65,24.39-.9,3.19-2.07,6.86-3.32,10.56l31.42-.11,99.36-.36h2.2s98.84-.36,98.84-.36l33.82-.12c-1.13-3.37-2.18-6.7-3-9.61Z"/>
        <path class="cls-1" d="M709.47,1383.47l-.06-.63c-20.07-.52-43.47-4.24-67.83-10.81l-3.13-.81c-8.61-2.17-17.04-4.57-23.11-7.72-4.92-2.55-8.33-5.59-8.79-9.49-.77-6.44,6.53-10.55,8.93-11.9,2.43-1.37,5.4-2.53,8.51-3.6,3.99-1.37,8.27-2.57,12.28-3.66,1.77-.48,3.46-.94,4.99-1.38,22.71-6.57,45.8-10.76,67-12.15l.05-61.69c-.38-2.85-3.34-6.38-6.43-7.41-13.41,1.06-27.84.57-43.12.06-8.7-.29-17.49-.59-26.17-.59-20.03,0-39.47,1.57-55.9,8.36-31.03,12.84-86.82,52.63-100.2,83.33-7.38,16.94,5.1,32.51,18.51,47,19.03,20.57,48.91,40.09,70.09,50.31,31.27,15.09,63.29,13.8,97.18,12.45,12.72-.52,25.87-1.05,38.93-.62,3.46-.5,8.29-3.1,8.91-8.69,1.15-10.27.72-50.32-.64-60.36Z"/>
      </g>
      <g>
        <path class="cls-1" d="M803.75,979.79c-24.56-34.82-10.5-70.21,6.35-98.28,16.85-28.08,8.25-70.18-24.32-103.88-32.57-33.69-235.86-179.7-274.04-201.04-29.29-16.37-27.52,13.5-20.04,33.38l46.02,29.47c2.23,1.43,2.88,4.4,1.45,6.63-.92,1.43-2.46,2.21-4.04,2.21-.89,0-1.78-.25-2.59-.76l-33.58-21.5c-.91,5.64-2.45,20.96,4.49,33.63l50.25,25.08c2.37,1.18,3.33,4.06,2.15,6.44-.84,1.69-2.54,2.66-4.3,2.66-.72,0-1.45-.16-2.14-.51l-40.13-20.02c-.84,6.98,1.88,21.47,29.17,40.23l56.06,27.97c2.37,1.18,3.33,4.06,2.15,6.44-.84,1.69-2.54,2.66-4.3,2.66-.72,0-1.45-.16-2.14-.51l-49.81-24.86c-4,9.19-3.71,26.48,33.97,47.08l45.06,19.87c.4-6.62,3.05-12.05,6-15.64-9.13-19.65-2.62-30.81,1.61-35.42-3.61-13.75,2.9-23.46,9.93-28.99-19.52-12.82-53.69-37.4-55.31-38.56-2.15-1.55-2.64-4.55-1.09-6.7,1.55-2.16,4.55-2.64,6.7-1.09.44.32,44.64,32.1,61.32,42.4l-.7,8.53c-1.72.72-16.82,7.61-10.85,24.27l-1.85,5.61c-.38.27-10.58,7.93.29,28.62l-1.14,5.89c-1.17,1.03-11.4,10.77-.45,26.69l-.58,6.13c-.39.4-10.27,10.94.76,29.64l-1.8,6.63c-.19.11-5.66,3.36-7.29,10.78-1.73,7.82,1.46,17.84,9.22,28.98l-.03,5.53s-4.29,6.32-2.83,13.92c1.11,5.76,5.22,11.03,12.23,15.67l1.78,5.85c-.41.99-9.84,24.41,9.96,34.18l2.44,5.79c-.28.87-6.65,21.96,14.87,31.91,2.4,1.11,3.45,3.97,2.34,6.37-.81,1.75-2.55,2.79-4.36,2.79-.67,0-1.36-.14-2.01-.45-20.85-9.64-23.06-28.4-20.95-39.71-16.67-10.49-16.01-29.44-12.47-40.93-7.44-5.7-11.91-12.36-13.29-19.83-1.45-7.8.93-14.47,2.74-18.13-8.27-12.71-11.28-24.23-8.96-34.28,1.56-6.75,5.25-11.28,8.11-13.93-8.46-17.06-3.25-29.09.31-34.47-1.77-3.05-2.86-5.96-3.62-8.76-.58.24-1.19.41-1.82.41s-1.3-.13-1.93-.41l-43.48-19.17c-4.13,4.1-6.4,11.26.51,23.54.36.05.73.04,1.09.18l35.41,13.23c2.48.93,3.74,3.69,2.82,6.17-.72,1.93-2.55,3.12-4.49,3.12-.56,0-1.12-.1-1.68-.3l-31.47-11.76c-2.66,5.1-5.52,14.5,1.01,24.83.39.03.78.02,1.17.15l25.81,8.71c2.51.85,3.86,3.57,3.01,6.08-.67,2-2.54,3.26-4.55,3.26-.51,0-1.02-.08-1.54-.25l-21.7-7.32c-5.61,3.74-12.05,12.36,3.76,29.52.28.03.55-.02.83.06l23.71,6.56c2.55.71,4.05,3.35,3.34,5.9-.59,2.13-2.52,3.52-4.62,3.52-.42,0-.86-.06-1.28-.18l-22.18-6.13c-6.41,6.91-13.51,20.95,10.93,37.51,0,0-28.64,20.41,16.85,45.02,0,0-28.08,47.64,15.72,65.61,0,0-19.47,28.79,25.83,35.38,0,0-20.22,26.39,19.09,32.01,0,0-5.62,31.45,32.57,28.08,0,0-3.37,21.34,33.69,17.41,0,0,2.81,25.27,32.01,19.09,0,0,7.86,23.02,36.5,13.48,0,0,12.31,20.76,29.92,14.39v-198.02c-12.1-3.12-23.29-9.55-31.6-21.34Z"/>
        <path class="cls-1" d="M1196.25,979.79c24.56-34.82,10.5-70.21-6.35-98.28-16.85-28.08-8.25-70.18,24.32-103.88,32.57-33.69,235.86-179.7,274.04-201.04,29.29-16.37,27.52,13.5,20.04,33.38l-46.02,29.47c-2.23,1.43-2.88,4.4-1.45,6.63.92,1.43,2.46,2.21,4.04,2.21.89,0,1.78-.25,2.59-.76l33.58-21.5c.91,5.64,2.45,20.96-4.49,33.63l-50.25,25.08c-2.37,1.18-3.33,4.06-2.15,6.44.84,1.69,2.54,2.66,4.3,2.66.72,0,1.45-.16,2.14-.51l40.13-20.02c.84,6.98-1.88,21.47-29.17,40.23l-56.06,27.97c-2.37,1.18-3.33,4.06-2.15,6.44.84,1.69,2.54,2.66,4.3,2.66.72,0,1.45-.16,2.14-.51l49.81-24.86c4,9.19,3.71,26.48-33.97,47.08l-45.06,19.87c-.4-6.62-3.05-12.05-6-15.64,9.13-19.65,2.62-30.81-1.61-35.42,3.61-13.75-2.9-23.46-9.93-28.99,19.52-12.82,53.69-37.4,55.31-38.56,2.15-1.55,2.64-4.55,1.09-6.7-1.55-2.16-4.55-2.64-6.7-1.09-.44.32-44.64,32.1-61.32,42.4l.7,8.53c1.72.72,16.82,7.61,10.85,24.27l1.85,5.61c.38.27,10.58,7.93-.29,28.62l1.14,5.89c1.17,1.03,11.4,10.77.45,26.69l.58,6.13c.39.4,10.27,10.94-.76,29.64l1.8,6.63c.19.11,5.66,3.36,7.29,10.78,1.73,7.82-1.46,17.84-9.22,28.98l.03,5.53s4.29,6.32,2.83,13.92c-1.11,5.76-5.22,11.03-12.23,15.67l-1.78,5.85c.41.99,9.84,24.41-9.96,34.18l-2.44,5.79c.28.87,6.65,21.96-14.87,31.91-2.4,1.11-3.45,3.97-2.34,6.37.81,1.75,2.55,2.79,4.36,2.79.67,0,1.36-.14,2.01-.45,20.85-9.64,23.06-28.4,20.95-39.71,16.67-10.49,16.01-29.44,12.47-40.93,7.44-5.7,11.91-12.36,13.29-19.83,1.45-7.8-.93-14.47-2.74-18.13,8.27-12.71,11.28-24.23,8.96-34.28-1.56-6.75-5.25-11.28-8.11-13.93,8.46-17.06,3.25-29.09-.31-34.47,1.77-3.05,2.86-5.96,3.62-8.76.58.24,1.19.41,1.82.41s1.3-.13,1.93-.41l43.48-19.17c4.13,4.1,6.4,11.26-.51,23.54-.36.05-.73.04-1.09.18l-35.41,13.23c-2.48.93-3.74,3.69-2.82,6.17.72,1.93,2.55,3.12,4.49,3.12.56,0,1.12-.1,1.68-.3l31.47-11.76c2.66,5.1,5.52,14.5-1.01,24.83-.39.03-.78.02-1.17.15l-25.81,8.71c-2.51.85-3.86,3.57-3.01,6.08.67,2,2.54,3.26,4.55,3.26.51,0,1.02-.08,1.54-.25l21.7-7.32c5.61,3.74,12.05,12.36-3.76,29.52-.28.03-.55-.02-.83.06l-23.71,6.56c-2.55.71-4.05,3.35-3.34,5.9.59,2.13,2.52,3.52,4.62,3.52.42,0,.86-.06,1.28-.18l22.18-6.13c6.41,6.91,13.51,20.95-10.93,37.51,0,0,28.64,20.41-16.85,45.02,0,0,28.08,47.64-15.72,65.61,0,0,19.47,28.79-25.83,35.38,0,0,20.22,26.39-19.09,32.01,0,0,5.62,31.45-32.57,28.08,0,0,3.37,21.34-33.69,17.41,0,0-2.81,25.27-32.01,19.09,0,0-7.86,23.02-36.5,13.48,0,0-12.31,20.76-29.92,14.39v-198.02c12.1-3.12,23.29-9.55,31.6-21.34Z"/>
        <path class="cls-1" d="M938.06,1401.57l4.3,2.99c.25.6,6.72,15.35,28.22,15.73l3.59,1.72c.33.38,8.31,9.27,23.63,10.1.37.02.72.07,1.1.08.38-.01.73-.06,1.1-.08,15.32-.83,23.3-9.73,23.65-10.13l3.57-1.69c21.51-.38,27.95-14.84,28.21-15.46l4.28-2.94c21.11-.64,22.55-16.05,22.65-17.8.05-.58.19-1.79.34-3.1l-82.7.3h-2.2s-82.59.3-82.59.3l.21,2.28c.11,1.95,1.53,17.06,22.63,17.7Z"/>
        <path class="cls-1" d="M1135.92,1420.19c-2-3.56-13.67-20.04-27.5-39.29l-16.04.06c-.19,1.6-.38,3.21-.43,3.81-.32,8.4-6.91,24.63-29.1,26.56-3.33,5.55-12.81,17.41-33.43,18.49-3.57,3.42-13.19,10.91-28.47,11.86-.31.06-.6.19-.93.19h0c-.39,0-.72-.06-1.1-.07-.38,0-.72.07-1.1.07-.33,0-.62-.12-.93-.19-15.29-.95-24.91-8.44-28.48-11.86-20.66-1.1-30.15-13.18-33.48-18.82-22.17-1.93-28.74-17.96-29.06-26.5l-.27-2.87-16.75.06c-13.58,18.91-24.96,34.99-26.94,38.51-5.3,9.42,1.82,28.7,18.63,26.37,1.34-1.82,2.85-3.66,4.61-5.51,1.83-1.91,4.87-2,6.78-.16,1.92,1.83,1.99,4.87.17,6.79-4.18,4.39-6.78,8.69-8.45,12.36,2.88,6.48,9.24,13.92,22.25,13.76,0,0-.17-.68,0,0,3.82-6.69,8.54-14.28,14.38-22.57,1.53-2.17,4.52-2.7,6.69-1.16,2.17,1.52,2.69,4.52,1.16,6.68-7.27,10.31-12.79,19.59-16.88,27.21,4.26,5,11.71,9.88,24.61,10.58,3.69-9.34,9.44-21.47,18.23-34.69,1.47-2.2,4.45-2.8,6.65-1.34,2.21,1.46,2.81,4.45,1.34,6.65-9.93,14.92-15.81,28.55-19.09,37.73,4.98,4.81,13.47,9.77,26.88,8.97,1.26-6.14,3.11-13.16,5.82-20.1.96-2.48,3.74-3.69,6.22-2.73,2.47.97,3.69,3.75,2.73,6.22-2.69,6.91-4.47,13.98-5.64,20.03,4.22,3.06,10.98,6.82,18.82,7.47.37.03.73.09,1.1.1.37-.02.73-.07,1.1-.1,8.18-.67,15.19-4.74,19.36-7.86-1.17-5.97-2.93-12.89-5.57-19.64-.96-2.47.26-5.25,2.73-6.22,2.47-.96,5.25.25,6.22,2.73,2.72,6.97,4.57,14.01,5.83,20.16,13.49.63,21.86-4.61,26.7-9.49-3.31-9.17-9.15-22.59-18.92-37.28-1.47-2.2-.87-5.19,1.34-6.65s5.19-.87,6.65,1.34c8.78,13.2,14.53,25.32,18.22,34.65,12.89-.85,20.26-5.9,24.39-10.96-4.07-7.54-9.51-16.66-16.64-26.78-1.53-2.16-1.01-5.16,1.16-6.68,2.16-1.54,5.16-1.01,6.69,1.16,5.62,7.97,10.2,15.3,13.94,21.8.04-.2,0,0,0,0,13.48.16,19.63-6.97,22.38-13.69-1.68-3.51-4.23-7.56-8.14-11.66-1.83-1.92-1.76-4.96.17-6.79,1.92-1.83,4.96-1.74,6.78.16,1.78,1.86,3.29,3.73,4.65,5.57,16.34,1.74,23.2-17.14,17.97-26.43Z"/>
        <path class="cls-1" d="M854.26,1313.16c1.08,0,2.19.09,3.3.28,4.83.82,8.76,3.2,11.64,6.77l12.55-.05c.87-1.29,1.43-2.94,1.36-5.19,0,0,12.62,1.19,10.4-9.89,0,0,7.08-.03,11.28-4.59l-52.38-26.67-15.54,41.52c1.46.86,2.91,1.96,4.25,3.46,4.49-4.67,9.64-5.63,13.13-5.63Z"/>
        <path class="cls-1" d="M1106.49,1305.07c-2.22,11.08,10.4,9.89,10.4,9.89-.05,1.71.26,3.08.78,4.22l14-.06c2.79-2.98,6.44-4.94,10.78-5.68,1.1-.19,2.21-.28,3.3-.28,3.49,0,8.65.96,13.13,5.63,1.34-1.49,2.79-2.6,4.25-3.46l-15.62-41.71-52.5,26.66c4.17,4.77,11.48,4.78,11.48,4.78Z"/>
        <path class="cls-1" d="M863.59,1333.54c-.09-.86-.12-1.76-.31-2.54-.92-3.89-3.16-6.69-7.48-7.42-.68-.12-1.31-.12-1.93-.09-.3.01-.58.06-.86.1-.38.06-.75.13-1.11.25-.27.09-.53.19-.79.31-.34.15-.66.33-.98.53-.24.15-.48.32-.71.5-.3.24-.58.5-.86.79-.21.21-.42.43-.62.66-.27.32-.52.68-.77,1.04-.18.26-.36.51-.53.8-.24.41-.47.86-.69,1.31-.14.29-.29.56-.43.87-.23.53-.44,1.09-.64,1.66-.1.28-.21.54-.31.83-.05.16-.09.34-.14.5-.23.73-.45,1.47-.64,2.26h-6.75c-.08-.77-.2-1.5-.32-2.23-.32-1.84-.78-3.55-1.44-5.02-.58-1.28-1.31-2.37-2.21-3.26-1.5-1.49-3.47-2.38-6.07-2.41-.43,0-.8.08-1.2.13-.32.04-.67.04-.97.11-.36.09-.67.25-1,.38-.28.11-.58.18-.83.32-.32.18-.6.42-.89.64-.22.17-.46.3-.67.49-.29.27-.53.6-.79.92-.17.21-.36.38-.51.61-.26.38-.48.83-.71,1.26-.11.21-.24.39-.34.62-.24.52-.43,1.1-.63,1.68-.06.18-.14.34-.2.53-.21.69-.38,1.42-.53,2.17-.02.11-.06.2-.08.31-.04.19-.06.4-.09.59-.12.7-.24,1.4-.32,2.15h-5.48s-.02-.08-.03-.12c-.16-.69-.35-1.35-.55-2-.05-.18-.09-.37-.15-.55-.09-.28-.2-.54-.29-.82-.19-.56-.39-1.12-.61-1.64-.13-.3-.28-.58-.41-.87-.22-.45-.43-.9-.67-1.32-.16-.28-.35-.54-.52-.8-.25-.37-.5-.74-.77-1.07-.2-.25-.42-.46-.63-.68-.28-.29-.57-.57-.88-.82-.24-.19-.49-.36-.75-.52-.32-.21-.66-.39-1.01-.55-.28-.13-.56-.24-.86-.33-.37-.12-.76-.21-1.16-.27-.32-.05-.64-.1-.97-.12-.65-.03-1.31-.04-2.03.06-4.96.73-7.14,4.75-7.59,10.38-.75,9.4,3.44,23.38,8.37,34.85,2.22,5.18,4.58,9.83,6.68,13.29.09.14.18.32.27.46.34.55.81.88,1.32,1.11.16.07.32.08.49.12.39.09.79.15,1.19.09.09-.01.18-.02.28-.05.49-.13.94-.37,1.32-.72.07-.06.12-.14.18-.21.19-.22.27-.54.4-.82.11-.25.31-.42.35-.71.32-2.26.59-4.99.78-8.3.07-1.32.12-2.8.16-4.31.03-1.1.04-2.29.05-3.5,0,0,0,0,0-.02-.32-3.41-3.72-7.43-4.73-8.15-2.51-1.33-3.46-4.43-2.13-6.94,1.32-2.5,4.45-3.47,6.97-2.14,6.41,3.37,5.23,14.1,5.5,17.09,0,.05-.02.09-.02.14.28,1.24.59,2.39.91,3.5.19.66.38,1.33.58,1.95.87,2.7,1.83,5.07,2.81,7.35.58,1.34,1.16,2.66,1.73,4,.08.18.15.35.23.53.27.63.7,1.07,1.19,1.37.17.1.37.09.56.16.35.12.7.26,1.07.25.39-.01.75-.19,1.12-.35.19-.08.4-.08.57-.2.49-.35.9-.87,1.11-1.54,0,0,0,0,.01-.02.02-.06.05-.15.07-.22.99-3.25,2.37-7.73,3.55-13.33.06-.29.13-.53.19-.82.31-1.53.58-3.23.84-4.93-1.1-2.72-3.3-5.28-4.08-5.84-2.51-1.33-3.46-4.43-2.13-6.94,1.32-2.5,4.45-3.47,6.97-2.14,4.69,2.47,5.31,8.85,5.41,13.28h.05c.06,2.79.21,5.18.43,7.37.15,1.53.32,2.98.54,4.32.38,2.45.86,4.67,1.4,6.93.16.68.33,1.36.5,2.06.02.07.04.15.05.22.18.71.57,1.24,1.07,1.62.16.12.37.14.56.23.36.17.73.34,1.13.36.36.02.71-.09,1.05-.2.18-.06.38-.05.55-.15.5-.28.95-.7,1.25-1.3.11-.22.25-.55.37-.81,1.36-2.93,3.29-7.89,5.21-13.33.67-1.89,1.33-3.82,1.96-5.74.87-2.65,1.67-5.26,2.35-7.65,1.37-4.85,2.68-10.21,3.18-15.13.05-.45.02-.85.05-1.29.13-1.81.1-3.51-.06-5.12Z"/>
        <path class="cls-1" d="M1207.87,1332.12c-.74-4.73-2.97-8.01-7.42-8.66-.72-.11-1.38-.1-2.03-.06-.34.02-.66.06-.97.12-.4.07-.79.15-1.16.27-.29.1-.58.21-.86.33-.35.16-.69.35-1.01.56-.25.16-.5.33-.74.52-.31.25-.6.53-.88.82-.21.22-.43.44-.63.68-.27.33-.52.7-.76,1.07-.18.27-.36.52-.52.8-.24.42-.45.87-.67,1.32-.14.29-.29.57-.41.87-.19.46-.36.95-.53,1.44-.03.08-.06.15-.08.22-.09.27-.2.52-.28.79-.27.86-.51,1.75-.73,2.67h-5.48c-.1-.95-.24-1.87-.41-2.74-.03-.13-.06-.25-.09-.38-.04-.19-.09-.36-.13-.54-.12-.53-.23-1.07-.38-1.57-.08-.26-.19-.49-.28-.74-.17-.5-.34-1.01-.55-1.46-.13-.28-.29-.51-.43-.77-.2-.38-.39-.77-.62-1.11-.18-.26-.39-.46-.58-.69-.24-.28-.46-.59-.72-.84-.21-.2-.47-.34-.7-.51-.28-.21-.55-.45-.86-.62-.26-.14-.56-.21-.83-.32-.33-.13-.64-.29-1-.38-.3-.07-.65-.07-.97-.11-.4-.05-.77-.13-1.2-.13-.83,0-1.6.1-2.31.28-1.51.37-2.74,1.12-3.76,2.13-1.67,1.65-2.72,4.07-3.37,6.92-.26,1.14-.47,2.32-.61,3.58h-6.75c-.23-.96-.5-1.88-.79-2.76-.09-.28-.2-.52-.29-.79,0-.01,0-.02-.01-.04-.21-.57-.41-1.14-.64-1.66-.13-.3-.28-.58-.42-.87-.22-.45-.45-.9-.69-1.32-.17-.28-.35-.53-.52-.79-.25-.37-.5-.72-.77-1.05-.2-.24-.41-.45-.61-.66-.28-.28-.57-.55-.87-.79-.23-.18-.46-.34-.7-.5-.32-.2-.64-.38-.98-.53-.26-.12-.52-.22-.79-.31-.36-.11-.73-.19-1.11-.25-.28-.04-.57-.09-.86-.1-.62-.03-1.25-.02-1.93.09-2.87.49-4.83,1.9-6.09,3.93-.84,1.36-1.28,3.07-1.56,4.9-.3,1.91-.36,4.01-.2,6.25.03.44,0,.84.05,1.29.5,4.92,1.81,10.29,3.18,15.13,1.08,3.81,2.49,8.18,3.95,12.37,1.81,5.2,3.68,10.08,5.08,13.3.3.69.6,1.35.85,1.87.29.6.74,1.02,1.25,1.3.17.09.36.09.55.15.35.11.7.22,1.05.2.4-.02.77-.19,1.13-.36.18-.09.39-.1.56-.23.49-.38.89-.91,1.07-1.62.11-.45.22-.89.32-1.33.08-.31.16-.63.23-.94.54-2.26,1.01-4.48,1.4-6.93.26-1.63.47-3.37.64-5.29,0-.05,0-.11.01-.16.06-.7.11-1.45.15-2.2,0-.08-.05-.14-.04-.22.27-2.99-.91-13.71,5.5-17.09,2.51-1.33,5.65-.37,6.97,2.14,1.33,2.51.38,5.61-2.13,6.94-.75.54-2.83,2.91-3.97,5.49.26,1.71.54,3.38.84,4.93.84,4.23,1.82,7.87,2.69,10.84.27.92.5,1.67.74,2.46.14.46.3,1.01.43,1.43.21.69.62,1.2,1.12,1.56.17.12.38.12.57.21.36.16.72.33,1.12.34.37.01.72-.13,1.07-.25.18-.06.39-.05.56-.16.5-.3.93-.75,1.19-1.37.25-.6.51-1.19.77-1.78,1.74-4.02,3.51-7.99,4.94-13.33.15-.57.3-1.18.44-1.79-.04-.18-.11-.34-.1-.55.27-2.99-.91-13.71,5.5-17.09,2.51-1.33,5.65-.37,6.97,2.14,1.33,2.51.38,5.61-2.13,6.94-.95.68-3.95,4.29-4.56,7.56,0,.92,0,1.92.01,2.78,0,.07,0,.16,0,.23.08,3.92.27,7.2.54,9.96.11,1.15.23,2.15.36,3.12.03.2.05.44.07.63.09.63.38,1.12.74,1.53.06.07.11.15.18.21.37.35.83.59,1.31.72.09.02.18.03.28.05.4.06.79,0,1.19-.09.16-.04.33-.05.49-.12.5-.22.98-.56,1.32-1.11.35-.56.72-1.22,1.08-1.85,2.1-3.63,4.37-8.23,6.5-13.34,4.42-10.63,8.13-23.15,7.87-32.1-.03-1.08-.15-2.07-.31-3.04Z"/>
        <path class="cls-1" d="M835.36,944.15v254.76s.07-.02.1-.03v26.28c0,14.97,8.65,28.75,22.05,35.34.2.1.38.23.58.33l141.91,66.81s142.51-67.17,142.82-67.32c13.2-6.66,21.72-20.31,21.72-35.15v-26.28s.1-254.73.1-254.73h-329.27ZM872.46,1256.22s-10.86-5.2-11.31-5.44c-9.38-5.03-15.4-14.89-15.4-25.62v-164.84h26.71v195.9ZM919.36,1278.31l-11.73-5.52-14.61-6.88v-205.58h26.34v217.98ZM966.26,1300.39l-26.34-12.4v-227.66h26.34v240.07ZM1013.17,1310.07l-13.17,6.2-13.17-6.2v-249.75h26.34v249.75ZM1060.07,1287.99l-26.34,12.4v-240.07h26.34v227.66ZM1106.98,1248.17v17.73l-14.31,6.74-12.03,5.66v-217.98h26.34v187.85ZM1154.25,1225.16c0,10.59-5.88,20.34-15.07,25.43-.55.31-1.08.66-1.65.93l-9.98,4.7v-195.9h26.71v164.84ZM1154.25,1002.74v43.87h-308.5v-92.11h308.5v48.24Z"/>
        <path class="cls-1" d="M1047.08,801.69c-5.36-25.01-21.1-28.74-30.93-28.74h-47.95c-11.29,0-19.07,10.17-19.07,10.17,0,0-.04,0-.04,0-2.02,3.38-3.93,8.58-1.26,14.15,2.01,4.19,8.94,11.14,15.05,17.26,4.6,4.61,8.95,8.97,11.76,12.61l5.58,7.23-9.12.49c-6.57.35-17.55,2.42-20.25,5.74-.08.1-.21.14-.3.23,1.12,3.25,1.2,8.81-1.84,18.48-2.59,8.23-16.81,53.34-26.83,85.08h164.73c-13.05-45.39-35.75-125.05-39.53-142.7ZM972.12,799.83c-5.52-.06-9.27-1.68-11.1-4.86-1.78-3.1-1.01-6.6.18-8.66,1.43-2.46,4.58-3.28,7.03-1.85,1.82,1.06,2.74,3.07,2.52,5.03.43.05.98.08,1.67.08h26.13c8.29,0,12.94,4.73,13.44,5.27,1.94,2.07,1.82,5.33-.25,7.27-.99.92-2.25,1.38-3.51,1.38-1.37,0-2.75-.55-3.76-1.64,0,0-2.09-1.99-5.92-1.99h-.18v1.39l-5.14,5.14h-15.97"/>
        <path class="cls-1" d="M948.25,830.77c-8.65-2.09-18.64-4.51-25.13-6.13-4.11-1.03-9.93-1.51-14.98,1.3.77-.19,1.5-.44,2.33-.5,10.93-.7,9.19,9.76,32.04,10.78.17-.6.47-1.17.89-1.68,1.23-1.51,2.97-2.71,4.85-3.77Z"/>
        <path class="cls-1" d="M902.18,818.19c6.41-4.08,14.45-5.08,23.27-2.87,8.48,2.12,22.93,5.61,32.54,7.92-.65-.65-1.25-1.27-1.91-1.93-6.98-7-14.2-14.23-16.92-19.9-.06-.12-.09-.24-.15-.36l-8.04-2.53c-2.71-.85-4.21-3.74-3.36-6.45.85-2.7,3.72-4.22,6.45-3.36l2.92.92c.21-2.44.79-4.71,1.57-6.74-9.46-.04-23.05.34-31.3,2.55-26.17,6.99-20.62,34.09-16.14,47.35,2.34-6.44,6.09-11.43,11.07-14.6Z"/>
        <circle class="cls-1" cx="984.18" cy="797.84" r="5.5"/>
      </g>
    </g>
  </g>
</svg>